<?xml version="1.0" standalone="no"?>
<!DOCTYPE svg PUBLIC "-//W3C//DTD SVG 20010904//EN"
 "http://www.w3.org/TR/2001/REC-SVG-20010904/DTD/svg10.dtd">
<svg version="1.0" xmlns="http://www.w3.org/2000/svg"
 width="140.000000pt" height="140.000000pt" viewBox="0 0 140.000000 140.000000"
 preserveAspectRatio="xMidYMid meet">

<g transform="translate(0.000000,140.000000) scale(0.100000,-0.100000)"
fill="#000000" stroke="none">
<path d="M535 1376 c-64 -29 -150 -112 -175 -168 -19 -43 -27 -128 -12 -128 4
0 14 6 22 13 8 7 7 2 -3 -15 -9 -15 -17 -34 -17 -43 0 -13 4 -14 22 -4 l21 11
-21 -30 c-28 -39 -29 -56 -2 -42 23 12 27 -2 5 -20 -8 -7 -15 -21 -15 -32 0
-16 3 -17 21 -8 19 11 20 10 10 -9 -6 -11 -16 -23 -21 -26 -17 -11 0 -26 22
-19 19 6 19 5 -3 -25 -26 -35 -21 -48 11 -31 20 11 21 10 11 -9 -6 -11 -16
-23 -21 -26 -6 -3 -10 -13 -10 -21 0 -11 6 -13 21 -9 21 7 21 6 5 -16 -23 -34
-21 -53 4 -39 24 13 26 3 5 -20 -33 -36 41 -160 96 -160 25 0 43 -44 29 -70
-5 -10 -10 -30 -10 -43 0 -28 35 -77 56 -77 21 0 17 -31 -11 -92 -29 -62 -31
-90 -9 -127 25 -43 103 -91 147 -91 l37 0 1 208 c1 139 4 191 9 157 5 -27 9
-121 9 -207 1 -133 3 -158 16 -158 13 0 15 22 15 134 0 122 2 135 18 141 30 9
42 50 42 143 l0 87 47 19 c62 26 117 84 133 141 15 55 9 138 -26 338 -28 166
-56 264 -83 299 -26 33 -104 66 -198 84 -103 19 -140 18 -198 -10z m103 -11
c20 -14 21 -14 16 0 -8 19 3 19 39 0 15 -8 25 -10 22 -5 -8 14 12 12 38 -2 12
-7 32 -11 45 -9 13 1 25 -4 28 -14 5 -12 9 -13 14 -4 6 9 16 4 36 -17 15 -16
24 -23 20 -16 -16 28 6 9 24 -20 27 -45 25 -56 -7 -51 -25 4 -25 2 10 -17 46
-25 47 -40 5 -40 l-33 0 34 -18 c45 -22 51 -42 14 -43 l-28 0 33 -16 c39 -20
42 -43 5 -43 l-28 -1 33 -14 c44 -19 40 -35 -9 -35 -40 0 -41 1 -37 30 3 17 1
30 -3 30 -3 0 -10 25 -14 57 -4 31 -11 66 -16 77 -6 15 -7 8 -4 -24 11 -94 46
-335 51 -339 6 -6 4 32 -5 102 -8 62 -6 65 48 46 44 -16 41 -39 -6 -39 l-38
-1 40 -14 c22 -8 41 -15 43 -15 1 0 2 -7 2 -15 0 -10 -11 -15 -32 -16 l-33 0
34 -12 c43 -15 53 -37 17 -37 -14 0 -26 -4 -26 -10 0 -5 9 -10 20 -10 57 0 48
-145 -12 -208 -43 -44 -85 -68 -47 -26 27 29 49 66 49 81 0 4 -11 -8 -24 -27
-13 -19 -39 -44 -57 -54 -34 -19 -34 -19 -18 0 22 26 52 85 46 91 -3 2 -8 -5
-12 -16 -3 -11 -27 -38 -52 -61 -49 -43 -80 -55 -46 -17 24 26 53 81 53 99 -1
7 -7 0 -14 -17 -14 -32 -89 -105 -108 -105 -6 0 -2 10 9 23 22 23 43 60 43 74
0 4 -11 -8 -24 -28 -22 -32 -65 -69 -81 -69 -3 0 6 17 19 38 14 20 28 51 31
67 5 24 1 20 -24 -22 -33 -55 -70 -87 -116 -99 -29 -7 -29 -7 8 26 21 18 44
45 51 59 17 35 26 96 19 132 -9 46 -23 23 -24 -39 l-1 -57 -12 57 -11 56 -50
-19 c-66 -25 -68 -24 -14 10 62 39 119 57 209 67 69 7 72 8 40 16 -49 12 -164
0 -224 -23 -27 -10 -52 -17 -54 -15 -5 6 79 54 114 65 16 5 65 13 109 17 77 7
79 7 40 16 -55 13 -164 2 -225 -22 -67 -26 -55 -8 18 29 44 22 78 31 147 37
81 7 87 8 55 17 -53 14 -180 2 -235 -22 -66 -29 -40 0 31 35 41 20 75 28 141
32 106 6 85 20 -32 21 -62 0 -93 -5 -138 -23 -74 -31 -57 -7 26 34 52 26 72
30 141 31 67 0 77 2 56 11 -14 6 -59 11 -100 11 -62 1 -85 -3 -134 -26 -52
-24 -57 -25 -41 -7 10 11 40 31 68 45 43 21 66 25 141 26 l91 1 -50 14 c-71
21 -164 13 -227 -20 -66 -34 -44 -5 27 35 45 26 60 29 145 30 l95 1 -45 15
c-68 22 -175 13 -236 -20 l-49 -27 35 31 c63 56 108 70 202 64 l83 -5 -44 15
c-24 8 -64 16 -89 17 -40 3 -46 6 -59 36 -11 26 -19 32 -46 33 l-32 1 30 13
c39 18 56 18 83 0z m-57 -57 c11 -22 11 -22 -7 -7 -10 10 -28 19 -39 22 -15 4
-14 5 7 6 19 1 31 -6 39 -21z m-97 -313 c40 -318 37 -294 26 -260 -20 61 -71
479 -56 464 3 -2 16 -94 30 -204z m-30 -265 c4 -41 4 -49 -4 -32 -14 32 -40
236 -45 352 -4 80 -1 67 19 -85 13 -99 26 -205 30 -235z m380 -247 c3 -21 5
-63 5 -93 l-1 -55 -15 63 -15 62 -37 0 -37 0 -11 -66 c-18 -103 -28 -94 -25
21 l3 105 63 0 63 0 7 -37z m-189 -48 c14 -13 25 -33 25 -45 0 -22 -47 -76
-57 -66 -4 3 2 12 12 20 27 20 24 74 -6 97 -13 10 -18 19 -11 19 7 0 24 -11
37 -25z m33 -271 c3 -98 2 -102 -20 -107 -16 -5 -30 1 -49 19 -27 26 -47 70
-27 58 7 -5 9 3 5 22 -3 16 -4 23 0 16 3 -8 16 9 31 43 17 38 30 55 41 53 13
-3 17 -21 19 -104z"/>
<path d="M811 1214 c0 -11 3 -14 6 -6 3 7 2 16 -1 19 -3 4 -6 -2 -5 -13z"/>
<path d="M821 1170 c-1 -29 24 -231 38 -300 14 -72 12 -15 -4 125 -17 141 -32
219 -34 175z"/>
<path d="M751 704 c0 -11 3 -14 6 -6 3 7 2 16 -1 19 -3 4 -6 -2 -5 -13z"/>
<path d="M981 684 c0 -11 3 -14 6 -6 3 7 2 16 -1 19 -3 4 -6 -2 -5 -13z"/>
<path d="M590 113 c0 -12 48 -58 55 -52 2 3 -9 17 -25 33 -17 15 -30 24 -30
19z"/>
</g>
</svg>
