<svg width="140" height="140" viewBox="0 0 140 140" fill="none" xmlns="http://www.w3.org/2000/svg">
<path fill-rule="evenodd" clip-rule="evenodd" d="M80.4201 140V113.216C84.0175 112.848 86.3135 109.295 86.3129 103.989C86.3129 103.984 86.313 103.979 86.3132 103.974C86.3133 103.97 86.3135 103.965 86.3135 103.961V103.957L86.3134 103.93C86.3098 101.996 86.3037 98.7784 86.0292 95.0201L86.028 95.0024C85.9458 93.0905 85.8618 91.2504 85.7936 89.8309L85.8817 89.8038C86.1907 89.7089 86.4991 89.6141 86.8065 89.5107C90.749 88.1893 94.6136 86.2445 97.8665 83.4025C98.6834 82.7001 99.4382 81.9221 100.159 81.1138C100.852 80.3219 101.58 79.3644 102.117 78.5439C103.4 76.6222 104.095 74.4729 104.508 72.3474C105.279 68.0707 105.061 63.8463 104.686 59.7212C104.292 55.5973 103.658 51.5446 102.995 47.5442C102.352 43.7285 101.684 39.9654 101.021 36.2343L100.925 35.6929C100.225 31.7881 99.5191 27.9241 98.6749 24.1295C97.8056 20.3453 96.8524 16.5927 95.1974 13.072C94.3629 11.3201 93.3238 9.63345 91.9482 8.19754C91.1721 7.41536 90.3467 6.8718 89.5219 6.39336C88.6923 5.92527 87.8602 5.50284 87.0208 5.1431C83.6717 3.68467 80.3142 2.72658 77.0357 1.93467C73.7567 1.16041 70.5476 0.598578 67.4256 0.274143C65.8637 0.114056 64.3225 0.012406 62.802 0.000232112C61.2681 -0.00402876 59.8078 0.04832 58.2575 0.32832C56.7996 0.604059 55.3899 1.10988 54.1311 1.67658C52.8596 2.25058 51.6854 2.90067 50.5873 3.58302C46.2144 6.33919 42.9616 9.4411 40.517 12.1997C38.0774 14.9681 36.5039 17.471 35.6383 19.3227C35.2025 20.2448 34.942 21.0008 34.7685 21.5548C34.637 22.0411 34.5689 22.2907 34.5689 22.2907L34.561 22.315L34.407 23.1209C34.351 23.3833 34.301 23.7071 34.2578 24.0894C34.2512 24.1421 34.2443 24.1961 34.2372 24.2513C34.1931 24.5956 34.1431 24.9857 34.1184 25.4133C33.9766 27.1663 33.9486 29.6102 34.1093 32.6361L38.8273 29.4197L34.2986 35.5097C34.3741 36.4958 34.4642 37.5312 34.5683 38.611L39.4859 35.3782L34.8696 41.5547C34.9712 42.4927 35.082 43.466 35.1983 44.46L40.1457 41.3386L35.5562 47.4408C35.6272 48.0069 35.699 48.5805 35.7717 49.162C35.8167 49.522 35.8621 49.885 35.908 50.2511L40.805 47.2989L36.2884 53.266C36.4029 54.1674 36.5216 55.0866 36.6439 56.0191L41.463 53.2593L37.0481 59.051C37.1692 59.9397 37.2964 60.8442 37.4267 61.7573L42.1234 59.2184L37.871 64.7569C38.0074 65.6432 38.1517 66.538 38.3032 67.4437L42.7826 65.1769L38.8109 70.3082C38.9819 71.2146 39.1615 72.127 39.3575 73.0492L43.4406 71.1373L39.9449 75.6118C40.1494 76.4408 40.371 77.2747 40.615 78.1123C41.1069 79.7972 41.6863 81.4991 42.4691 83.1864C42.8684 84.0288 43.317 84.867 43.8673 85.679C43.9219 85.7536 43.9719 85.8269 44.0219 85.9003C44.1087 86.0276 44.1958 86.1552 44.3074 86.2907C44.3575 86.3518 44.4099 86.4178 44.4627 86.4844C44.5799 86.632 44.6991 86.7822 44.7998 86.8867L45.0287 87.135L45.1431 87.2592L45.3282 87.4387C45.5339 87.6329 45.7463 87.8027 45.9624 87.9634C47.7045 89.1997 49.5598 89.7749 51.4139 90.2911C52.1182 90.4743 52.8273 90.6338 53.5383 90.7823C53.7775 91.7727 54.195 93.4928 54.6674 95.4078C53.5182 96.8936 52.8157 98.8195 52.809 100.927C52.7999 103.172 53.5681 105.292 54.9693 106.897C56.1623 108.263 57.6938 109.116 59.3586 109.378C59.6502 109.812 59.9722 110.228 60.3313 110.619C60.0495 112.608 58.9745 114.73 57.835 116.964L57.8346 116.965C55.697 121.161 53.0375 126.382 56.5805 131.505C59.0471 135.069 63.2342 137.513 67.2849 139.877L67.299 139.885C67.3222 139.899 67.3448 139.912 67.3675 139.925C67.3902 139.939 67.4129 139.952 67.436 139.966V140H75.2695C75.3237 128.268 75.363 116.538 75.363 104.808V96.2478C76.287 103.497 76.5865 110.835 76.6626 118.134C76.7201 123.787 76.7426 129.438 76.7652 135.09C76.7717 136.727 76.7782 138.363 76.7856 140H80.4201ZM82.1938 109.111C82.8299 107.776 83.2761 106.496 83.5494 105.042C83.8562 103.417 83.8355 101.678 83.774 100.03C83.6809 97.4981 83.4983 94.9695 83.309 92.441C83.2371 90.8596 83.1708 89.47 83.1257 88.535H70.0936C70.163 89.7214 70.2804 91.8256 70.3815 93.9993L70.3949 93.9987L70.4001 94.1143C70.5196 96.7402 70.6392 99.3718 70.5756 101.999C70.4716 103.845 70.3255 105.654 69.7539 107.425C69.3708 108.61 68.7679 109.699 68.1676 110.782C68.126 110.857 68.0844 110.932 68.0429 111.007C68.1526 110.865 68.2639 110.722 68.3757 110.578C69.1888 109.532 70.031 108.449 70.5148 107.215C71.2757 105.494 71.7681 103.693 72.073 101.835C72.504 99.2255 72.7913 96.5929 73.0774 93.964L80.8955 93.8617C81.4202 96.0725 81.929 98.2863 82.3813 100.514C82.6966 102.064 82.8902 103.674 82.8676 105.26C82.7903 106.605 82.573 107.815 82.1938 109.111ZM97.8823 57.2298C99.2093 57.1513 100.534 57.1531 101.861 57.1787C101.763 56.3466 101.654 55.5157 101.541 54.6848C99.9799 54.1194 98.4192 53.5569 96.8135 53.1229C95.4287 52.7528 94.0354 52.4448 92.636 52.146C92.7456 54.0171 92.8016 55.8876 92.7967 57.7557C94.4919 57.5445 96.1792 57.3467 97.8823 57.2298ZM96.9936 51.5105C98.3602 51.4588 99.7255 51.4953 101.09 51.5525C100.966 50.7448 100.839 49.9382 100.709 49.1329C97.8957 48.0494 95.0677 47.1723 92.1697 46.4078C92.3536 48.212 92.5027 50.0192 92.6141 51.8264C94.0719 51.6955 95.5285 51.575 96.9936 51.5105ZM92.1229 45.9671C94.8169 45.8399 97.4873 45.8234 100.181 45.9507C100.15 45.7641 100.118 45.5776 100.087 45.3912C99.983 44.7748 99.8792 44.1591 99.7736 43.5445C97.0521 42.4257 94.3087 41.4786 91.5075 40.6294C91.7303 42.4044 91.9372 44.1848 92.1229 45.9671ZM98.7929 37.8769C98.7875 37.8958 98.7826 37.9147 98.7771 37.9335C96.1372 36.7788 93.4748 35.769 90.7606 34.8383C90.8239 35.3276 90.8874 35.8175 90.9511 36.3079C91.1159 37.5777 91.2812 38.8509 91.4423 40.1261C94.0415 40.0895 96.6236 40.1437 99.2184 40.3214C99.0766 39.504 98.9348 38.6895 98.7929 37.8769ZM98.2311 34.6874C98.0838 33.8608 97.9347 33.0378 97.7843 32.2173C97.7746 32.2495 97.7649 32.2812 97.7539 32.3134C95.1682 31.1101 92.5569 30.0314 89.9048 29.0155C90.1994 30.7704 90.4556 32.5314 90.6876 34.2923C93.2112 34.3392 95.7172 34.4628 98.2311 34.6874ZM89.8092 28.4598C92.2775 28.5882 94.7299 28.7751 97.1854 29.0448C97.0314 28.2535 96.8731 27.4658 96.7118 26.683C94.0829 25.3871 91.421 24.1977 88.7245 23.0582C89.139 24.846 89.4957 26.6489 89.8092 28.4598ZM95.9899 23.376C95.7945 22.5427 95.5894 21.7167 95.3733 20.8998C92.6092 19.4645 89.8159 18.1223 86.9916 16.8142C87.6185 18.7182 88.1529 20.6508 88.6174 22.6011C91.0844 22.8068 93.5381 23.0558 95.9899 23.376ZM55.9822 7.0045C54.9261 6.68432 53.8298 7.03006 52.8346 7.39649C52.8203 7.40177 52.7963 7.41045 52.7642 7.42206C52.3958 7.55508 50.9623 8.07273 50.9623 8.26084C51.4669 8.18627 51.9691 8.09246 52.4712 7.99866C52.711 7.95387 52.9507 7.90909 53.1907 7.8664C53.2087 7.86322 53.2268 7.86001 53.245 7.85678C54.0612 7.71205 55.071 7.533 55.8379 7.92241C56.7052 8.35603 57.1993 9.2989 57.6842 10.2241C57.9862 10.8002 58.2845 11.3695 58.6671 11.8047C58.5892 10.0528 57.8643 7.5785 55.9822 7.0045ZM61.9036 14.727C59.095 15.5634 56.4843 16.7747 54.094 18.5052C51.5935 20.3136 49.3212 22.3181 47.1214 24.4747C49.5665 22.8269 52.0433 21.3168 54.707 20.047C56.967 18.8954 59.397 18.2355 61.8902 17.9111C61.912 17.907 61.9338 17.903 61.9556 17.8989C62.1692 17.859 62.3822 17.8193 62.5987 17.7906C65.7663 17.3706 69.0569 17.7188 72.1826 18.3025C74.0142 18.6531 75.8317 19.0853 77.6128 19.6489C78.395 19.8973 79.1783 20.1511 79.9404 20.4512C80.0573 20.4987 81.1755 20.9923 81.4494 21.1603C81.2181 19.1875 80.9807 17.216 80.7311 15.2456C78.0862 15.2822 75.4458 15.0957 72.8068 14.9092C69.1721 14.6525 65.54 14.3958 61.9023 14.7228C61.9027 14.7234 61.9028 14.7241 61.903 14.7249C61.9031 14.7256 61.9033 14.7264 61.9036 14.727ZM67.0543 52.7845C64.7815 53.4358 62.6626 54.3239 60.5376 55.3897C57.4297 56.9369 54.6427 59.0201 51.8737 61.0897C51.7864 61.155 51.6991 61.2203 51.6117 61.2855C55.4861 59.384 59.3489 57.5895 63.5501 56.5195C64.5995 56.2534 65.686 56.0313 66.7658 55.9333C66.9247 55.9187 67.0836 55.9041 67.2424 55.8888C67.258 55.8858 67.2734 55.8823 67.2887 55.8788C67.3075 55.8745 67.3262 55.8703 67.3453 55.8669C73.5315 54.7305 80.2813 54.7719 86.2855 56.8183C86.0783 55.3802 85.8478 53.9446 85.6177 52.5109C85.545 52.058 85.4723 51.6052 85.4004 51.1526C85.3947 51.1176 85.3894 51.0824 85.384 51.0471C85.3791 51.0144 85.3741 50.9815 85.3688 50.9487C85.0072 51.0235 84.2518 51.1167 84.1958 51.1209C83.665 51.1644 83.1343 51.201 82.6031 51.2376C82.3752 51.2533 82.1473 51.269 81.9193 51.2853C81.4106 51.3225 80.9017 51.359 80.3928 51.3954C79.2143 51.4798 78.0354 51.5642 76.8574 51.659C76.636 51.6769 76.4145 51.6946 76.1929 51.7124C73.1406 51.9569 70.062 52.2035 67.0464 52.7364C67.0489 52.7528 67.0519 52.7681 67.0543 52.7845ZM84.3031 50.4614C84.34 50.4727 84.3769 50.484 84.4137 50.4952C84.456 50.5078 84.5317 50.5244 84.625 50.545C84.8342 50.5911 85.1315 50.6566 85.3365 50.7387C85.0352 48.8274 84.737 46.9173 84.449 45.0054C84.219 45.0888 83.7557 45.1332 83.659 45.1405C82.9975 45.1929 82.3326 45.2252 81.6689 45.2575C81.5007 45.2657 81.3325 45.2738 81.1645 45.2823C80.5804 45.3118 79.9961 45.3404 79.4119 45.369C76.8223 45.4957 74.2321 45.6224 71.6476 45.8265C71.3378 45.851 71.0262 45.8743 70.7136 45.8977C69.1371 46.0157 67.5316 46.1358 65.9727 46.4188L65.9873 46.507C63.8114 47.155 61.7822 48.0201 59.7477 49.0668C59.7268 49.0776 59.6999 49.0915 59.666 49.1092C59.4631 49.2136 59.5207 49.1842 59.6173 49.1343C56.4583 50.7716 53.6462 52.9586 50.863 55.1517C54.6735 53.1795 58.5478 51.2074 62.746 50.1994C63.7717 49.9413 64.8058 49.7355 65.8564 49.6174C65.8999 49.6129 65.9662 49.6117 66.0439 49.6102C66.0913 49.6093 66.1428 49.6083 66.1961 49.6065C66.6477 49.5109 67.1018 49.4233 67.5596 49.3533C70.7205 48.8712 73.9697 48.8194 77.1532 49.1013C78.8393 49.251 80.501 49.5316 82.1561 49.8914C82.8815 50.0279 83.596 50.2458 84.3031 50.4614ZM79.7213 43.4921C81.3033 43.8178 82.8859 44.2141 84.4016 44.7783C84.4061 44.78 84.4089 44.7813 84.4119 44.7828C84.4134 44.7835 84.415 44.7842 84.4168 44.785C84.1301 42.8743 83.8531 40.9618 83.5956 39.0468C83.4684 39.115 83.2152 39.1552 82.9876 39.1698C82.2604 39.215 81.5315 39.2364 80.8038 39.2577C80.6701 39.2616 80.5366 39.2656 80.403 39.2696C79.7406 39.2891 79.0781 39.3076 78.4157 39.3261C75.7923 39.3992 73.1698 39.4724 70.5489 39.6099C70.375 39.6189 70.2006 39.6277 70.0256 39.6366C68.3486 39.7213 66.6236 39.8084 64.9629 40.1127C64.9653 40.1294 64.9676 40.1463 64.9699 40.1632C64.9721 40.1801 64.9744 40.197 64.9769 40.2137C62.8336 40.8705 60.8408 41.7403 58.8406 42.8037C58.9435 42.7489 59.0147 42.71 58.7925 42.8281C58.5977 42.9327 58.655 42.9029 58.7481 42.853C55.6188 44.5367 52.8389 46.7596 50.1119 49.0167C53.8043 46.9988 57.6092 44.9524 61.7234 43.9304C62.8483 43.634 63.978 43.41 65.1351 43.27C65.2678 43.2535 65.3628 43.2414 65.4413 43.2255C65.4443 43.2407 65.4468 43.256 65.4492 43.2712C66.2947 43.0983 67.1554 42.9638 68.0435 42.8737C71.9075 42.4799 75.9194 42.7081 79.7213 43.4921ZM78.5167 37.3516C80.1419 37.6992 81.775 38.1241 83.3327 38.7157C83.4392 38.7559 83.5117 38.793 83.5676 38.8277C83.3138 36.9298 83.0746 35.0301 82.8445 33.1291C82.7153 33.1942 82.5172 33.1957 82.3565 33.1969C82.3128 33.1972 82.2719 33.1975 82.2358 33.1991C81.7836 33.2174 81.3331 33.2234 80.8827 33.2289C79.1159 33.2755 77.3484 33.2814 75.5807 33.2872C73.8399 33.2929 72.0989 33.2987 70.3583 33.3434C70.0219 33.3522 69.6799 33.3588 69.3343 33.3654C67.6234 33.3984 65.823 33.4332 64.16 33.7451L64.1728 33.8559C61.9918 34.5248 59.9819 35.4178 57.9623 36.5268C58.0688 36.4678 58.1497 36.4228 57.9227 36.5475C57.7316 36.6541 57.7912 36.6218 57.8843 36.5701C54.7806 38.3055 52.0433 40.5637 49.365 42.8804L49.4215 42.8481C52.9893 40.808 56.6875 38.6932 60.7014 37.6621C61.7386 37.3778 62.7685 37.1854 63.8228 36.9919C63.8954 36.9819 63.968 36.9708 64.0407 36.9597C64.2032 36.935 64.3659 36.9101 64.5295 36.8975C64.5302 36.8973 64.5309 36.8969 64.5317 36.8964C64.5328 36.8958 64.5339 36.8951 64.535 36.8951C64.5374 36.9109 64.5392 36.9268 64.541 36.9426C65.3695 36.7697 66.2119 36.6431 67.0696 36.5755C70.8855 36.2754 74.7708 36.5494 78.5167 37.3516ZM76.4124 31.0169C78.1539 31.3614 79.8765 31.8168 81.5541 32.3932C81.6569 32.4291 82.5408 32.745 82.8232 32.9599C82.5889 31.0188 82.3636 29.077 82.1396 27.1347C82.0772 27.233 81.6638 27.2266 81.4436 27.2232C81.4022 27.2226 81.3676 27.222 81.3435 27.2223C79.2748 27.2535 77.2061 27.2099 75.1375 27.1662C73.6503 27.1349 72.1631 27.1035 70.6761 27.1C68.8883 27.0957 67.1049 27.1158 65.319 27.2278C64.9526 27.2942 64.5728 27.3152 64.192 27.3362C63.9484 27.3496 63.7043 27.3631 63.463 27.3885C63.4655 27.4135 63.4685 27.439 63.471 27.464C61.2218 28.1439 59.176 29.0661 57.1156 30.2305C57.2069 30.1781 57.2592 30.1477 57.0504 30.2658C56.8794 30.365 56.9165 30.3443 56.9956 30.2993C53.9303 32.0828 51.2374 34.3769 48.6163 36.7448C52.1541 34.607 55.8063 32.4924 59.8121 31.3541C60.9035 31.0443 61.9912 30.8021 63.1143 30.6243C63.2269 30.6067 63.513 30.5568 63.796 30.4819C63.799 30.5056 63.8015 30.5288 63.8039 30.5525C64.3517 30.449 64.9032 30.3626 65.4638 30.3127C69.1172 29.9888 72.823 30.3072 76.4124 31.0169ZM80.1005 26.1912C80.7288 26.3893 81.4066 26.603 81.9692 26.9344C82.0593 26.988 82.1086 27.0306 82.1311 27.0653C82.0773 26.5982 82.0235 26.1312 81.9698 25.6642C81.8 24.1885 81.6302 22.7132 81.4573 21.2382C81.2324 21.3595 80.522 21.29 80.0887 21.2475C79.9543 21.2344 79.8466 21.2238 79.7883 21.2224C78.8777 21.2048 77.967 21.1786 77.0564 21.1512C75.0666 21.0878 73.0735 21.0034 71.0828 20.9191L70.7996 20.9071C68.822 20.8249 66.8255 20.7768 64.8484 20.8809C64.664 20.8908 64.4768 20.8986 64.288 20.9064C63.7791 20.9276 63.2591 20.9492 62.7521 21.0136C62.7536 21.0289 62.7555 21.0447 62.7574 21.0601C62.7579 21.0637 62.7583 21.0673 62.7588 21.0708C61.8037 21.349 60.873 21.6479 59.9423 22.0149C58.712 22.5025 57.5752 23.1689 56.4377 23.8357C56.3512 23.8864 56.2647 23.9371 56.1782 23.9877C56.0132 24.0863 56.0503 24.065 56.1283 24.0194C53.0951 25.8509 50.4388 28.1877 47.8683 30.6103C51.4163 28.346 55.0892 26.176 59.1517 24.9756C59.1866 24.9653 59.2216 24.9549 59.2567 24.9446C60.2339 24.6555 61.276 24.3473 62.2931 24.2756C62.5451 24.2507 62.833 24.2032 63.1106 24.1405C63.1119 24.1519 63.1129 24.163 63.1141 24.174C63.1145 24.1783 63.115 24.1825 63.1155 24.1868C63.5014 24.1186 63.8903 24.0608 64.2842 24.02C67.7525 23.6578 71.381 24.0541 74.7781 24.7601C76.5232 25.1241 78.2343 25.5819 79.927 26.1364C79.9843 26.1546 80.0422 26.1728 80.1005 26.1912ZM40.0837 29.5621C40.4069 37.8276 41.3449 46.0785 42.3943 54.2776C42.4578 54.7747 42.5209 55.2735 42.5841 55.7737C43.4528 62.6473 44.3534 69.7731 47.1196 76.1462C46.2954 73.3353 45.8103 70.4458 45.3793 67.5539C44.5411 61.9057 43.8636 56.2283 43.1865 50.5535C42.8934 48.0975 42.6004 45.642 42.2944 43.1896C41.4021 36.0466 40.5128 28.9005 40.0137 21.7173C39.9516 24.3359 39.9808 26.9441 40.0837 29.5621ZM48.2043 51.0065C48.7503 55.0074 49.407 59.0041 50.2513 62.954C50.9294 66.1265 51.6927 69.3094 52.9174 72.323C52.0786 69.2911 51.5795 66.1788 51.1083 63.0721C50.1432 56.7244 49.3749 50.3499 48.6066 43.9763C48.3874 42.1576 48.1681 40.3389 47.9443 38.5209C47.886 38.0463 47.8276 37.5718 47.7692 37.0972C46.9765 30.6561 46.1843 24.2198 45.5443 17.7608C45.4475 20.705 45.5363 23.6578 45.7056 26.5984C46.1718 34.7592 47.097 42.9096 48.2043 51.0065ZM56.9756 87.4247C57.5325 87.342 58.0883 87.2501 58.6385 87.1289C60.0866 86.8069 61.4836 86.3346 62.8324 85.7119C65.6075 84.4379 68.0063 82.3793 69.8696 79.9774C71.7796 77.5134 73.2466 74.7712 74.2783 71.833C75.1123 69.4585 75.7733 66.9446 75.6875 64.4081C76.3497 67.6945 75.7575 71.2243 74.8183 74.3987C73.6916 78.1878 71.8308 81.7121 69.1391 84.6223C68.7544 85.038 68.3503 85.4313 67.9351 85.8123C69.6973 85.1074 71.3639 84.1816 72.9228 82.96C75.8457 80.67 78.101 77.5712 79.6038 74.1887C80.9016 71.2724 81.7957 68.008 81.6247 64.7959C82.1634 68.0707 81.59 71.5183 80.5796 74.647C79.3737 78.3874 77.3303 81.8953 74.5188 84.6576C74.1036 85.066 73.6678 85.455 73.2216 85.8336C74.3331 85.3801 75.4093 84.8597 76.41 84.2346C77.6499 83.4603 78.7778 82.6544 79.9228 81.7444C81.0086 80.8853 81.9171 79.7839 82.798 78.7159C82.8558 78.6458 82.9135 78.5759 82.9711 78.5061C85.0839 75.9563 86.4395 72.6821 87.1681 69.4749C87.4907 68.0652 87.5783 66.6287 87.5595 65.1891C88.6259 71.7794 86.0183 79.0844 81.2108 83.7105C80.5923 84.3064 79.9581 84.8688 79.3062 85.4008C79.9191 85.1409 80.5296 84.8719 81.1335 84.5791C87.1267 81.6744 91.743 76.2838 93.1765 69.733C93.4748 68.3653 93.5259 66.9707 93.4961 65.5787C94.5783 71.9194 92.1576 78.682 87.4901 83.1109C86.8187 83.7482 86.1296 84.349 85.4229 84.9187C87.3702 83.9972 89.2462 82.9484 91.001 81.6281C93.3263 79.8775 95.4171 77.6114 96.7465 75.0116C98.2609 72.043 98.8209 68.8887 98.701 65.578C99.3809 69.1383 99.1527 72.7053 97.7582 76.075C96.5292 79.0534 94.4998 81.7261 92.0778 83.8401C91.4868 84.3569 90.8775 84.8439 90.2584 85.315C92.384 84.2699 94.386 82.9959 96.1524 81.4437C96.8896 80.8125 97.5634 80.118 98.2104 79.3997C98.8617 78.6455 99.387 77.9754 99.9781 77.0836C100.986 75.5874 101.613 73.7589 101.983 71.8628C102.676 68.1078 102.522 64.116 102.178 60.182C100.714 59.6889 99.2476 59.2141 97.7442 58.8495C96.1068 58.4563 94.4566 58.1593 92.7967 57.8677C92.7964 57.9762 92.7978 58.0849 92.7993 58.1935C92.8011 58.3383 92.803 58.483 92.8009 58.6274C92.7882 59.6116 92.7188 60.5855 92.6238 61.5619C92.3695 58.7792 91.924 56.016 91.4792 53.2573C91.3958 52.7404 91.3125 52.2237 91.2305 51.7071C90.5877 47.6404 89.9596 43.5743 89.4117 39.4961C89.1076 37.2311 88.8237 34.9648 88.54 32.6992C87.8232 26.9759 87.1069 21.2571 86.0651 15.5755C85.9374 14.8841 85.8041 14.1927 85.671 13.5024C85.6335 13.3079 85.596 13.1135 85.5587 12.9192C86.0639 14.1506 86.5204 15.3978 86.9392 16.6566C89.4379 16.9469 91.9238 17.2622 94.4061 17.6335C93.9982 16.4161 93.5436 15.2347 93.0158 14.1092C92.2665 12.5168 91.3474 11.045 90.2146 9.85927C89.895 9.53484 89.4951 9.22258 89.0623 8.9298C89.741 10.3511 90.1543 11.9185 90.3266 13.4755C89.5937 11.1923 88.2583 8.85067 86.2843 7.43241C86.2497 7.41691 86.2158 7.40044 86.1819 7.38398C86.1399 7.36358 86.0979 7.34319 86.0548 7.32467C85.2842 6.98684 84.505 6.67519 83.721 6.38423C84.4661 7.83962 84.8751 9.51841 85.0407 11.1168C84.3863 9.13797 83.2396 6.79875 81.4238 5.59719C80.1663 5.19728 78.905 4.84302 77.6536 4.52162C78.5313 5.94902 79.0201 7.63876 79.1029 9.35528C78.4747 7.12197 77.0911 4.94345 75.0228 3.90258C73.6696 3.60493 72.3299 3.34562 71.0066 3.1271C71.027 3.1566 71.0482 3.18506 71.0693 3.21351C71.0992 3.25374 71.1291 3.29396 71.157 3.3371C72.1856 4.92093 72.6562 6.73119 72.7883 8.59562C72.0572 6.02754 70.5848 3.57449 68.1019 2.71136C67.984 2.69709 67.8655 2.68165 67.7471 2.66621C67.5574 2.64149 67.3679 2.61679 67.181 2.59693C66.2813 2.50258 65.3963 2.43806 64.5203 2.39058C65.8485 3.80032 66.6441 5.6471 66.708 7.78362C65.9769 4.97328 64.0346 2.95789 61.265 2.34858C60.3721 2.38267 59.5023 2.45449 58.7237 2.59328C56.4387 3.03336 54.3661 4.0231 52.4828 5.1218C52.7878 5.05976 53.0899 4.99445 53.3883 4.92995C56.5529 4.24587 59.2923 3.65371 60.5255 8.03197C60.8189 9.07101 61.0849 10.2239 61.3314 11.4662C63.0966 11.157 65.0749 11.3189 66.7963 11.4644C70.6225 11.7864 74.4348 12.7786 78.0395 14.069C78.9458 14.3922 79.8455 14.7593 80.7214 15.1622C80.7159 15.1135 80.7098 15.0642 80.7037 15.0149C80.6462 14.5556 80.5775 14.0977 80.5088 13.6397C80.4439 13.2067 80.3789 12.7736 80.3233 12.3391C82.7617 19.1863 83.9097 26.4852 84.855 33.6678C84.9084 34.0727 84.9619 34.4779 85.0155 34.8835C86.0121 42.427 87.0246 50.0905 86.9715 57.7003C86.9642 58.8008 86.899 59.891 86.7919 60.9848C86.6708 59.6329 86.4955 58.2859 86.3031 56.9413C84.6723 57.1599 83.025 57.2896 81.3803 57.4192C80.378 57.4982 79.3765 57.5771 78.3803 57.676C75.0958 58.0041 71.8089 58.404 68.5536 58.9542C68.4407 58.9734 68.3283 58.9949 68.2159 59.0164C68.1538 59.0283 68.0917 59.0401 68.0295 59.0516C68.03 59.0561 68.0307 59.0607 68.0314 59.0653C68.0322 59.0708 68.0331 59.0764 68.0337 59.0821C65.0262 59.9208 62.2018 61.1608 59.4785 62.7044C57.2153 63.9878 55.105 65.4791 52.9859 66.9766C52.7773 67.124 52.5687 67.2714 52.3598 67.4187C56.1057 65.6803 59.8565 64.0186 63.813 63.0173L63.8595 63.2697C64.2625 65.4585 64.6656 67.6482 64.8971 69.8633C65.0584 71.4167 65.0943 73.0839 64.7827 74.6214C64.5423 75.7853 64.205 76.8675 63.8143 77.9851C64.3688 76.9041 64.8576 75.8553 65.2648 74.7073C65.8047 73.1874 66.0007 71.4775 66.0561 69.873C66.1357 67.6232 66.0386 65.377 65.9414 63.1292C65.9331 62.9377 65.9249 62.7462 65.9167 62.5547C66.7366 62.4025 67.5669 62.2844 68.4081 62.2004C68.9127 67.0614 68.8956 71.284 67.8816 75.2794C66.6112 80.2829 61.7325 84.864 56.9756 87.4247ZM63.2652 105.129C62.3272 106.285 61.0496 106.879 59.666 107.313C61.4385 107.702 63.2403 107.146 64.5818 105.94C66.0293 104.637 66.6197 102.873 66.7506 100.98C66.6471 97.3185 63.6317 93.7692 59.7104 94.5976C61.1804 95.0736 62.4374 95.7261 63.4229 96.9594C64.3846 98.1621 64.8387 99.6997 64.7882 101.231C64.7376 102.635 64.199 104.073 63.2652 105.129ZM60.2333 119.292C58.1376 122.294 56.5172 126.414 58.7219 129.811C60.4579 132.493 63.2238 134.401 66.1389 135.634C63.4174 133.878 60.383 131.861 58.938 128.85C57.2775 125.773 58.8656 122.139 60.2333 119.292ZM61.8938 119.036C59.6836 123.371 58.4249 126.171 60.3258 128.917C61.8433 131.107 64.5526 132.947 67.4366 134.68V113.711L67.4091 113.71C67.37 113.707 67.3296 113.704 67.2917 113.702C66.9052 113.671 66.5376 113.627 66.1833 113.572C66.1343 113.565 66.0875 113.556 66.0405 113.546C66.0068 113.54 65.9731 113.533 65.9386 113.527C65.6647 113.481 65.3969 113.428 65.1418 113.367C65.0978 113.357 65.0553 113.345 65.0128 113.334C64.9883 113.327 64.9638 113.32 64.9391 113.314C64.8939 113.302 64.8485 113.291 64.8031 113.279C64.6732 113.247 64.5437 113.214 64.4205 113.176C63.835 115.204 62.8586 117.143 61.8938 119.036Z" fill="#34373D" fill-opacity="0.6"/>
</svg>
