<svg width="720" height="60" viewBox="0 0 720 60" fill="none" xmlns="http://www.w3.org/2000/svg">
<path fill-rule="evenodd" clip-rule="evenodd" d="M344.225 0H329.615L334.92 3.06234V23.0623L317.6 33.0641L300.279 23.0623V3.06234L305.584 0H290.976L296.281 3.06234V23.0623L278.961 33.0641L261.64 23.0623V3.06234L266.945 0H252.335L257.64 3.06234V23.0623L240.32 33.0641L222.999 23.0623V3.06234L228.304 0H213.695L219 3.06234V23.0623L202.76 32.4407V32.5561L201.88 33.0641L184.56 23.0623V3.06234L189.865 0H175.256L180.561 3.06234V23.0623L163.241 33.0641L145.92 23.0623V3.06234L151.225 0H136.615L141.92 3.06234V23.0623L124.6 33.0641L107.279 23.0623V3.06234L112.584 0H97.9757L103.281 3.06234V23.0623L85.9606 33.0641L68.6401 23.0623V3.06234L73.9451 0H59.3348L64.6396 3.06234V23.0623L47.3197 33.0641L29.9991 23.0623V3.06234L35.3042 0H20.6954L26.0003 3.06234V23.0623L9.75989 32.4407V32.5561L8.8802 33.0641L0 27.9362V32.9546L6.88054 36.9265V56.9265L1.55812 60H16.2019L10.8793 56.9265V36.9265L16.7599 33.5319V33.4166L28 26.9282L45.32 36.9265V56.9265L39.9976 60H54.643L49.3204 56.9265V36.9265L66.6409 26.9282L83.9609 36.9265V56.9265L78.6385 60H93.2823L87.9597 56.9265V36.9265L105.28 26.9282L122.6 36.9265V56.9265L117.278 60H131.923L126.601 56.9265V36.9265L143.921 26.9282L161.241 36.9265V56.9265L155.919 60H170.563L165.24 56.9265V36.9265L182.561 26.9282L199.881 36.9265V56.9265L194.558 60H209.202L203.879 56.9265V36.9265L209.76 33.5319V33.4166L221 26.9282L238.32 36.9265V56.9265L232.998 60H247.643L242.32 56.9265V36.9265L259.641 26.9282L276.961 36.9265V56.9265L271.639 60H286.282L280.96 56.9265V36.9265L298.28 26.9282L315.6 36.9265V56.9265L310.278 60H324.923L319.601 56.9265V36.9265L336.921 26.9282L354.241 36.9265V56.9265L348.919 60H363.563L358.24 56.9265V36.9265L375.28 27.09L392.32 36.9265V56.9265L386.998 60H402.202L396.879 56.9265V36.9265L402.76 33.5319V33.2093L413.641 26.9282L430.961 36.9265V56.9265L425.639 60H440.282L434.96 56.9265V36.9265L452.28 26.9282L469.6 36.9265V56.9265L464.278 60H478.923L473.601 56.9265V36.9265L490.921 26.9282L508.241 36.9265V56.9265L502.919 60H517.563L512.24 56.9265V36.9265L529.561 26.9282L546.881 36.9265V56.9265L541.558 60H556.202L550.879 56.9265V36.9265L556.76 33.5319V33.4166L568 26.9282L585.32 36.9265V56.9265L579.998 60H594.643L589.32 56.9265V36.9265L606.641 26.9282L623.961 36.9265V56.9265L618.638 60H633.282L627.96 56.9265V36.9265L645.28 26.9282L662.6 36.9265V56.9265L657.278 60H671.923L666.601 56.9265V36.9265L683.921 26.9282L701.241 36.9265V56.9265L695.919 60H710.563L705.24 56.9265V36.9265L720 28.4063V23.3862L703.241 33.0641L685.92 23.0623V3.06234L691.225 0H676.615L681.92 3.06234V23.0623L664.6 33.0641L647.279 23.0623V3.06234L652.584 0H637.976L643.281 3.06234V23.0623L625.961 33.0641L608.64 23.0623V3.06234L613.945 0H599.335L604.64 3.06234V23.0623L587.32 33.0641L569.999 23.0623V3.06234L575.304 0H560.695L566 3.06234V23.0623L549.76 32.4407V32.5561L548.88 33.0641L531.56 23.0623V3.06234L536.865 0H522.256L527.561 3.06234V23.0623L510.241 33.0641L492.92 23.0623V3.06234L498.225 0H483.615L488.92 3.06234V23.0623L471.6 33.0641L454.279 23.0623V3.06234L459.584 0H444.976L450.281 3.06234V23.0623L432.961 33.0641L415.64 23.0623V3.06234L420.945 0H406.335L411.64 3.06234V23.0623L394.6 32.9022L377.56 23.0623V3.06234L382.865 0H367.695L373 3.06234V23.0623L356.76 32.4407V32.7644L356.241 33.0641L338.92 23.0623V3.06234L344.225 0ZM715.256 0L720 2.73858V0H715.256Z" fill="url(#paint0_linear_77_610)"/>
<defs>
<linearGradient id="paint0_linear_77_610" x1="0" y1="30" x2="720" y2="30" gradientUnits="userSpaceOnUse">
<stop stop-color="#FFCC4D"/>
<stop offset="0.2" stop-color="#202327"/>
</linearGradient>
</defs>
</svg>
