<svg width="22" height="24" viewBox="0 0 22 24" fill="none" xmlns="http://www.w3.org/2000/svg">
<path d="M20 0H15C14.4696 0 13.9609 0.210714 13.5858 0.585786C13.2107 0.960859 13 1.46957 13 2V22C13 22.5304 13.2107 23.0391 13.5858 23.4142C13.9609 23.7893 14.4696 24 15 24H20C20.5304 24 21.0391 23.7893 21.4142 23.4142C21.7893 23.0391 22 22.5304 22 22V2C22 1.46957 21.7893 0.960859 21.4142 0.585786C21.0391 0.210714 20.5304 0 20 0ZM20 22H15V2H20V22ZM7 0H2C1.46957 0 0.960859 0.210714 0.585786 0.585786C0.210714 0.960859 0 1.46957 0 2V22C0 22.5304 0.210714 23.0391 0.585786 23.4142C0.960859 23.7893 1.46957 24 2 24H7C7.53043 24 8.03914 23.7893 8.41421 23.4142C8.78929 23.0391 9 22.5304 9 22V2C9 1.46957 8.78929 0.960859 8.41421 0.585786C8.03914 0.210714 7.53043 0 7 0ZM7 22H2V2H7V22Z" fill="black"/>
</svg>
