<svg width="22" height="26" viewBox="0 0 22 26" fill="none" xmlns="http://www.w3.org/2000/svg">
<path d="M21.05 11.3112L3.04 0.293748C2.73636 0.107814 2.38858 0.00630967 2.0326 -0.000282677C1.67661 -0.00687502 1.32532 0.081684 1.015 0.256248C0.707637 0.428101 0.451595 0.678722 0.273205 0.982337C0.0948143 1.28595 0.000513572 1.6316 0 1.98375V24.0162C0.00231596 24.5445 0.214292 25.0502 0.58933 25.4222C0.964367 25.7941 1.47177 26.002 2 26C2.36869 25.9998 2.73023 25.8982 3.045 25.7062L21.05 14.6887C21.3394 14.5123 21.5786 14.2645 21.7446 13.969C21.9105 13.6734 21.9977 13.3402 21.9977 13.0012C21.9977 12.6623 21.9105 12.3291 21.7446 12.0335C21.5786 11.738 21.3394 11.4901 21.05 11.3137V11.3112ZM2 23.9925V2L19.9788 13L2 23.9925Z" fill="black"/>
</svg>
