<svg width="130" height="130" viewBox="0 0 130 130" fill="none" xmlns="http://www.w3.org/2000/svg">
<g filter="url(#filter0_d_815_391)">
<circle cx="65" cy="65" r="50" fill="#202327"/>
<circle cx="65" cy="65" r="49" stroke="#FFCC4D" stroke-width="2"/>
</g>
<path d="M90.535 47.7175C90.3473 47.4928 90.1125 47.3121 89.8472 47.1882C89.582 47.0642 89.2928 47 89 47H48.67L47.15 38.6425C47.0663 38.1817 46.8235 37.7648 46.4639 37.4647C46.1044 37.1645 45.6509 37.0001 45.1825 37H39C38.4696 37 37.9609 37.2107 37.5858 37.5858C37.2107 37.9609 37 38.4696 37 39C37 39.5304 37.2107 40.0391 37.5858 40.4142C37.9609 40.7893 38.4696 41 39 41H43.5L49.89 76.0725C50.0782 77.1126 50.5379 78.0846 51.2225 78.89C50.2776 79.7725 49.5956 80.8995 49.2521 82.146C48.9087 83.3925 48.9171 84.7097 49.2766 85.9517C49.636 87.1937 50.3324 88.3118 51.2886 89.1822C52.2447 90.0525 53.4232 90.641 54.6934 90.8825C55.9636 91.1239 57.2758 91.0089 58.4846 90.5501C59.6934 90.0913 60.7515 89.3066 61.5416 88.2832C62.3317 87.2597 62.8229 86.0374 62.9607 84.7519C63.0986 83.4663 62.8777 82.1677 62.3225 81H73.6775C73.2301 81.9367 72.9985 82.9619 73 84C73 85.3845 73.4105 86.7378 74.1797 87.889C74.9489 89.0401 76.0421 89.9373 77.3212 90.4672C78.6003 90.997 80.0078 91.1356 81.3656 90.8655C82.7235 90.5954 83.9708 89.9287 84.9497 88.9497C85.9287 87.9708 86.5954 86.7235 86.8655 85.3656C87.1356 84.0078 86.997 82.6003 86.4672 81.3212C85.9373 80.0421 85.0401 78.9489 83.889 78.1797C82.7378 77.4105 81.3845 77 80 77H55.7925C55.3241 76.9999 54.8706 76.8355 54.5111 76.5353C54.1515 76.2352 53.9087 75.8183 53.825 75.3575L53.0325 71H82.0325C83.4376 70.9998 84.7981 70.5065 85.8768 69.606C86.9554 68.7055 87.6838 67.455 87.935 66.0725L90.975 49.3575C91.0265 49.0686 91.0137 48.7719 90.9377 48.4885C90.8616 48.2051 90.7242 47.9418 90.535 47.7175ZM59 84C59 84.5933 58.8241 85.1734 58.4944 85.6667C58.1648 86.1601 57.6962 86.5446 57.1481 86.7716C56.5999 86.9987 55.9967 87.0581 55.4147 86.9424C54.8328 86.8266 54.2982 86.5409 53.8787 86.1213C53.4591 85.7018 53.1734 85.1672 53.0576 84.5853C52.9419 84.0033 53.0013 83.4001 53.2284 82.852C53.4554 82.3038 53.8399 81.8352 54.3333 81.5056C54.8266 81.1759 55.4067 81 56 81C56.7956 81 57.5587 81.3161 58.1213 81.8787C58.6839 82.4413 59 83.2043 59 84ZM83 84C83 84.5933 82.8241 85.1734 82.4944 85.6667C82.1648 86.1601 81.6962 86.5446 81.148 86.7716C80.5999 86.9987 79.9967 87.0581 79.4147 86.9424C78.8328 86.8266 78.2982 86.5409 77.8787 86.1213C77.4591 85.7018 77.1734 85.1672 77.0576 84.5853C76.9419 84.0033 77.0013 83.4001 77.2284 82.852C77.4554 82.3038 77.8399 81.8352 78.3333 81.5056C78.8266 81.1759 79.4067 81 80 81C80.7957 81 81.5587 81.3161 82.1213 81.8787C82.6839 82.4413 83 83.2043 83 84ZM84 65.3575C83.916 65.8196 83.6722 66.2374 83.311 66.5377C82.9499 66.838 82.4947 67.0017 82.025 67H52.305L49.3975 51H86.6025L84 65.3575Z" fill="#FFCC4D"/>
<defs>
<filter id="filter0_d_815_391" x="0" y="0" width="130" height="130" filterUnits="userSpaceOnUse" color-interpolation-filters="sRGB">
<feFlood flood-opacity="0" result="BackgroundImageFix"/>
<feColorMatrix in="SourceAlpha" type="matrix" values="0 0 0 0 0 0 0 0 0 0 0 0 0 0 0 0 0 0 127 0" result="hardAlpha"/>
<feMorphology radius="5" operator="dilate" in="SourceAlpha" result="effect1_dropShadow_815_391"/>
<feOffset/>
<feGaussianBlur stdDeviation="5"/>
<feComposite in2="hardAlpha" operator="out"/>
<feColorMatrix type="matrix" values="0 0 0 0 1 0 0 0 0 0.8 0 0 0 0 0.301961 0 0 0 0.25 0"/>
<feBlend mode="normal" in2="BackgroundImageFix" result="effect1_dropShadow_815_391"/>
<feBlend mode="normal" in="SourceGraphic" in2="effect1_dropShadow_815_391" result="shape"/>
</filter>
</defs>
</svg>
