<svg width="1440" height="382" viewBox="0 0 1440 382" fill="none" xmlns="http://www.w3.org/2000/svg">
<mask id="path-1-inside-1_137_257" fill="white">
<path fill-rule="evenodd" clip-rule="evenodd" d="M1440 382V245.755C1434.3 256.486 1427.01 267.089 1417.77 277.308C1381.4 317.548 1307.35 257.188 1369.7 219.068C1432.06 180.947 1442.45 130.842 1406.08 75.9441C1369.7 21.0466 1416.79 0 1416.79 0C1416.79 0 1325.54 19.9885 1378.8 101.526C1408.41 146.861 1381.26 155.267 1344.99 166.501C1316.02 175.472 1281.22 186.246 1264.86 219.068C1241.1 266.719 1144.19 181.85 1228.11 167.181C1307.62 153.281 1320.3 147.511 1291.73 86.091C1263.15 24.6736 1333.33 14.4302 1333.33 14.4302C1333.33 14.4302 1240.4 13.5971 1256.97 82.0435C1265.2 116.047 1252.31 117.291 1229.59 119.482C1206.58 121.701 1173.49 124.892 1142.09 164.09C1114.15 198.975 1133.07 224.441 1150.73 248.212C1164.45 266.674 1177.4 284.114 1167.05 304.149C1140.68 355.194 1010.04 288.947 1092.44 191C1174.84 93.053 1107.98 47.0247 1107.98 47.0247C1107.98 47.0247 1140.64 114.231 1081.75 149.177C1022.86 184.121 962.019 119.985 1037.14 89.201C1112.27 58.4173 1070.12 0 1070.12 0C1070.12 0 1074.81 50.6973 1008.56 65.5212C942.311 80.3452 949.45 151.293 979.655 210.595C1009.86 269.896 941.01 303.782 917.626 245.539C894.243 187.298 900.737 111.054 955.3 64.4605C955.3 64.4605 898.142 80.3452 873.462 154.47C848.781 228.596 737.061 141.763 826.695 94.1111C826.695 94.1111 712.672 109.996 777.479 205.299C792.681 227.655 797.503 246.985 795.977 263.472C788.856 340.354 648.132 340.354 641.011 263.472C639.485 246.985 644.303 227.658 659.508 205.299C724.315 109.996 610.293 94.1111 610.293 94.1111C699.927 141.763 588.207 228.596 563.526 154.47C538.845 80.3452 481.684 64.4605 481.684 64.4605C536.243 111.054 542.741 187.298 519.358 245.539C495.974 303.779 427.125 269.893 457.329 210.595C487.534 151.293 494.677 80.3452 428.423 65.5212C362.172 50.6973 366.859 0 366.859 0C366.859 0 324.72 58.4173 399.846 89.201C474.972 119.985 414.136 184.121 355.242 149.177C296.349 114.234 329.005 47.0247 329.005 47.0247C329.005 47.0247 262.144 93.053 344.544 191C426.945 288.947 296.311 355.197 269.936 304.149C259.584 284.114 272.541 266.674 286.258 248.212C303.919 224.441 322.84 198.975 294.894 164.09C263.494 124.889 230.408 121.699 207.397 119.48C184.681 117.289 171.783 116.045 180.017 82.0435C196.591 13.5945 103.657 14.4302 103.657 14.4302C103.657 14.4302 173.837 24.6736 145.26 86.091C116.683 147.508 129.373 153.281 208.882 167.181C292.802 181.85 195.889 266.722 172.131 219.068C155.765 186.246 120.972 175.472 92.0018 166.501C55.7232 155.267 28.5773 146.861 58.191 101.526C111.452 19.9885 20.2061 0 20.2061 0C20.2061 0 67.2917 21.0466 30.9191 75.9441C-5.45343 130.842 4.93711 180.947 67.2917 219.068C129.646 257.188 55.6 317.548 19.2274 277.308C11.5398 268.803 5.19618 260.032 0 251.142V382H718.432H718.571H1440Z"/>
</mask>
<path fill-rule="evenodd" clip-rule="evenodd" d="M1440 382V245.755C1434.3 256.486 1427.01 267.089 1417.77 277.308C1381.4 317.548 1307.35 257.188 1369.7 219.068C1432.06 180.947 1442.45 130.842 1406.08 75.9441C1369.7 21.0466 1416.79 0 1416.79 0C1416.79 0 1325.54 19.9885 1378.8 101.526C1408.41 146.861 1381.26 155.267 1344.99 166.501C1316.02 175.472 1281.22 186.246 1264.86 219.068C1241.1 266.719 1144.19 181.85 1228.11 167.181C1307.62 153.281 1320.3 147.511 1291.73 86.091C1263.15 24.6736 1333.33 14.4302 1333.33 14.4302C1333.33 14.4302 1240.4 13.5971 1256.97 82.0435C1265.2 116.047 1252.31 117.291 1229.59 119.482C1206.58 121.701 1173.49 124.892 1142.09 164.09C1114.15 198.975 1133.07 224.441 1150.73 248.212C1164.45 266.674 1177.4 284.114 1167.05 304.149C1140.68 355.194 1010.04 288.947 1092.44 191C1174.84 93.053 1107.98 47.0247 1107.98 47.0247C1107.98 47.0247 1140.64 114.231 1081.75 149.177C1022.86 184.121 962.019 119.985 1037.14 89.201C1112.27 58.4173 1070.12 0 1070.12 0C1070.12 0 1074.81 50.6973 1008.56 65.5212C942.311 80.3452 949.45 151.293 979.655 210.595C1009.86 269.896 941.01 303.782 917.626 245.539C894.243 187.298 900.737 111.054 955.3 64.4605C955.3 64.4605 898.142 80.3452 873.462 154.47C848.781 228.596 737.061 141.763 826.695 94.1111C826.695 94.1111 712.672 109.996 777.479 205.299C792.681 227.655 797.503 246.985 795.977 263.472C788.856 340.354 648.132 340.354 641.011 263.472C639.485 246.985 644.303 227.658 659.508 205.299C724.315 109.996 610.293 94.1111 610.293 94.1111C699.927 141.763 588.207 228.596 563.526 154.47C538.845 80.3452 481.684 64.4605 481.684 64.4605C536.243 111.054 542.741 187.298 519.358 245.539C495.974 303.779 427.125 269.893 457.329 210.595C487.534 151.293 494.677 80.3452 428.423 65.5212C362.172 50.6973 366.859 0 366.859 0C366.859 0 324.72 58.4173 399.846 89.201C474.972 119.985 414.136 184.121 355.242 149.177C296.349 114.234 329.005 47.0247 329.005 47.0247C329.005 47.0247 262.144 93.053 344.544 191C426.945 288.947 296.311 355.197 269.936 304.149C259.584 284.114 272.541 266.674 286.258 248.212C303.919 224.441 322.84 198.975 294.894 164.09C263.494 124.889 230.408 121.699 207.397 119.48C184.681 117.289 171.783 116.045 180.017 82.0435C196.591 13.5945 103.657 14.4302 103.657 14.4302C103.657 14.4302 173.837 24.6736 145.26 86.091C116.683 147.508 129.373 153.281 208.882 167.181C292.802 181.85 195.889 266.722 172.131 219.068C155.765 186.246 120.972 175.472 92.0018 166.501C55.7232 155.267 28.5773 146.861 58.191 101.526C111.452 19.9885 20.2061 0 20.2061 0C20.2061 0 67.2917 21.0466 30.9191 75.9441C-5.45343 130.842 4.93711 180.947 67.2917 219.068C129.646 257.188 55.6 317.548 19.2274 277.308C11.5398 268.803 5.19618 260.032 0 251.142V382H718.432H718.571H1440Z" fill="url(#paint0_linear_137_257)"/>
<path d="M1440 245.755H1441L1439.12 245.286L1440 245.755ZM1440 382V383H1441V382H1440ZM1417.77 277.308L1417.03 276.637V276.637L1417.77 277.308ZM1369.7 219.068L1369.18 218.214L1369.7 219.068ZM1406.08 75.9441L1405.24 76.4964L1406.08 75.9441ZM1416.79 0L1417.2 0.912948L1416.58 -0.97684L1416.79 0ZM1378.8 101.526L1377.96 102.073L1378.8 101.526ZM1344.99 166.501L1344.69 165.546L1344.99 166.501ZM1264.86 219.068L1263.96 218.621V218.621L1264.86 219.068ZM1228.11 167.181L1228.28 168.166L1228.11 167.181ZM1291.73 86.091L1292.63 85.6692V85.6691L1291.73 86.091ZM1333.33 14.4302L1333.48 15.4197L1333.34 13.4302L1333.33 14.4302ZM1256.97 82.0435L1257.94 81.8082V81.8082L1256.97 82.0435ZM1229.59 119.482L1229.49 118.487L1229.59 119.482ZM1142.09 164.09L1141.31 163.465V163.465L1142.09 164.09ZM1150.73 248.212L1151.53 247.615V247.615L1150.73 248.212ZM1167.05 304.149L1167.94 304.608L1167.05 304.149ZM1092.44 191L1091.68 190.356L1092.44 191ZM1107.98 47.0247L1108.55 46.201L1105.43 44.0504L1107.08 47.4618L1107.98 47.0247ZM1081.75 149.177L1082.26 150.037L1081.75 149.177ZM1037.14 89.201L1036.76 88.2757V88.2757L1037.14 89.201ZM1070.12 0L1070.94 -0.585062L1068.79 -3.55716L1069.13 0.0920608L1070.12 0ZM1008.56 65.5212L1008.34 64.5454L1008.56 65.5212ZM917.626 245.539L918.554 245.166V245.166L917.626 245.539ZM955.3 64.4605L955.949 65.2209L955.032 63.497L955.3 64.4605ZM873.462 154.47L874.41 154.786L873.462 154.47ZM826.695 94.1111L827.164 94.9941L826.557 93.1207L826.695 94.1111ZM777.479 205.299L778.306 204.737L778.306 204.737L777.479 205.299ZM795.977 263.472L796.973 263.565V263.565L795.977 263.472ZM641.011 263.472L640.015 263.565V263.565L641.011 263.472ZM659.508 205.299L660.335 205.861V205.861L659.508 205.299ZM610.293 94.1111L610.431 93.1207L609.824 94.9941L610.293 94.1111ZM563.526 154.47L562.577 154.786L563.526 154.47ZM481.684 64.4605L481.952 63.497L481.035 65.2209L481.684 64.4605ZM519.358 245.539L518.43 245.166L519.358 245.539ZM457.329 210.595L458.22 211.049L458.221 211.049L457.329 210.595ZM428.423 65.5212L428.204 66.4971L428.423 65.5212ZM366.859 0L367.855 0.092062L368.192 -3.55746L366.048 -0.585029L366.859 0ZM399.846 89.201L400.225 88.2757L399.846 89.201ZM355.242 149.177L355.753 148.317L355.242 149.177ZM329.005 47.0247L329.905 47.4618L331.562 44.0504L328.438 46.201L329.005 47.0247ZM344.544 191L345.31 190.356L344.544 191ZM269.936 304.149L270.824 303.69L269.936 304.149ZM286.258 248.212L285.455 247.616L286.258 248.212ZM294.894 164.09L294.114 164.715L294.114 164.715L294.894 164.09ZM207.397 119.48L207.493 118.484L207.397 119.48ZM180.017 82.0435L180.989 82.2789V82.2789L180.017 82.0435ZM103.657 14.4302L103.648 13.4302L103.512 15.4197L103.657 14.4302ZM145.26 86.091L146.167 86.5129L145.26 86.091ZM208.882 167.181L208.71 168.166H208.71L208.882 167.181ZM172.131 219.068L173.026 218.621L173.026 218.621L172.131 219.068ZM92.0018 166.501L92.2976 165.546L92.0018 166.501ZM58.191 101.526L57.3538 100.979L58.191 101.526ZM20.2061 0L20.4201 -0.976837L19.798 0.912948L20.2061 0ZM30.9191 75.9441L30.0855 75.3918L30.9191 75.9441ZM67.2917 219.068L67.8133 218.214L67.2917 219.068ZM19.2274 277.308L18.4856 277.979L19.2274 277.308ZM0 251.142L0.863335 250.638L-1 247.45V251.142H0ZM0 382H-1V383H0V382ZM1439 245.755V382H1441V245.755H1439ZM1439.12 245.286C1433.46 255.945 1426.21 266.48 1417.03 276.637L1418.51 277.979C1427.8 267.698 1435.15 257.028 1440.88 246.224L1439.12 245.286ZM1417.03 276.637C1399.33 296.22 1372.39 291.406 1357.41 276.855C1349.94 269.605 1345.57 260.038 1346.79 250.029C1348 240.033 1354.81 229.347 1370.23 219.921L1369.18 218.214C1353.42 227.849 1346.11 239.003 1344.8 249.788C1343.5 260.561 1348.22 270.716 1356.02 278.29C1371.56 293.39 1399.84 298.636 1418.51 277.979L1417.03 276.637ZM1370.23 219.921C1401.54 200.779 1419.96 178.532 1425.88 154.032C1431.82 129.524 1425.19 102.988 1406.91 75.3918L1405.24 76.4964C1423.33 103.798 1429.7 129.763 1423.94 153.562C1418.18 177.369 1400.23 199.236 1369.18 218.214L1370.23 219.921ZM1406.91 75.3918C1397.89 61.7727 1394.09 50.3271 1393.4 40.8459C1392.72 31.3754 1395.13 23.7999 1398.65 17.8974C1402.18 11.9829 1406.82 7.72978 1410.59 4.95166C1412.48 3.56419 1414.14 2.54949 1415.33 1.88362C1415.92 1.5508 1416.39 1.3055 1416.72 1.14466C1416.88 1.06425 1417 1.00499 1417.08 0.966493C1417.12 0.947244 1417.15 0.933189 1417.17 0.92428C1417.18 0.919826 1417.19 0.916658 1417.19 0.914771C1417.2 0.913828 1417.2 0.913205 1417.2 0.912901C1417.2 0.912749 1417.2 0.912762 1417.2 0.912685C1417.2 0.912777 1417.2 0.912948 1416.79 0C1416.38 -0.912948 1416.38 -0.912616 1416.38 -0.912203C1416.38 -0.911958 1416.38 -0.911464 1416.38 -0.910973C1416.37 -0.90999 1416.37 -0.908684 1416.37 -0.907052C1416.36 -0.903788 1416.35 -0.899224 1416.34 -0.893353C1416.31 -0.881611 1416.28 -0.86464 1416.23 -0.842391C1416.13 -0.797895 1416 -0.732274 1415.82 -0.645129C1415.47 -0.470858 1414.97 -0.210379 1414.35 0.139522C1413.1 0.839076 1411.37 1.89753 1409.41 3.34096C1405.49 6.22462 1400.63 10.6643 1396.93 16.8736C1393.23 23.095 1390.69 31.0744 1391.41 40.9901C1392.12 50.895 1396.08 62.6668 1405.24 76.4964L1406.91 75.3918ZM1416.79 0C1416.58 -0.97684 1416.57 -0.976662 1416.57 -0.976406C1416.57 -0.976219 1416.57 -0.975887 1416.57 -0.975512C1416.57 -0.974761 1416.56 -0.973701 1416.55 -0.972331C1416.54 -0.96959 1416.52 -0.965603 1416.5 -0.960352C1416.46 -0.94985 1416.39 -0.934288 1416.3 -0.913506C1416.12 -0.871944 1415.86 -0.809497 1415.53 -0.724891C1414.86 -0.555689 1413.9 -0.297786 1412.69 0.0590435C1410.27 0.772537 1406.88 1.88249 1402.99 3.4712C1395.2 6.64444 1385.34 11.7478 1377.13 19.4579C1368.92 27.1795 1362.36 37.5404 1361.27 51.1842C1360.18 64.8133 1364.57 81.5697 1377.96 102.073L1379.63 100.979C1366.4 80.7132 1362.22 64.3946 1363.26 51.3434C1364.3 38.3071 1370.56 28.3826 1378.5 20.915C1386.46 13.4357 1396.08 8.4459 1403.74 5.32325C1407.57 3.76402 1410.89 2.67536 1413.26 1.97723C1414.44 1.62824 1415.38 1.37708 1416.02 1.21366C1416.35 1.13196 1416.59 1.07222 1416.76 1.03316C1416.84 1.01364 1416.9 0.999284 1416.94 0.989949C1416.97 0.985282 1416.98 0.981869 1416.99 0.97969C1417 0.978601 1417 0.977821 1417 0.977347C1417 0.977109 1417 0.976983 1417 0.976865C1417 0.976814 1417 0.97684 1416.79 0ZM1377.96 102.073C1385.33 113.354 1389.1 122.236 1390.12 129.366C1391.13 136.443 1389.45 141.807 1385.83 146.162C1382.17 150.566 1376.48 154.01 1369.34 157.065C1362.22 160.117 1353.77 162.733 1344.69 165.546L1345.28 167.456C1354.34 164.652 1362.89 162.005 1370.13 158.904C1377.37 155.806 1383.41 152.209 1387.37 147.44C1391.37 142.623 1393.19 136.683 1392.1 129.082C1391.02 121.535 1387.07 112.365 1379.63 100.979L1377.96 102.073ZM1344.69 165.546C1315.8 174.492 1280.55 185.357 1263.96 218.621L1265.75 219.514C1281.9 187.134 1316.23 176.452 1345.28 167.456L1344.69 165.546ZM1263.96 218.621C1261.08 224.392 1257.13 228.106 1252.59 230.214C1248.04 232.327 1242.84 232.858 1237.42 232.135C1226.57 230.685 1215.05 224.216 1206.82 215.795C1198.56 207.342 1193.86 197.193 1196.07 188.423C1198.27 179.734 1207.43 171.811 1228.28 168.166L1227.93 166.196C1206.83 169.885 1196.63 178.071 1194.14 187.932C1191.66 197.712 1196.94 208.552 1205.39 217.193C1213.87 225.867 1225.78 232.597 1237.16 234.117C1242.86 234.879 1248.47 234.337 1253.44 232.028C1258.42 229.713 1262.69 225.656 1265.75 219.514L1263.96 218.621ZM1228.28 168.166C1248.15 164.692 1263.9 161.717 1275.89 158.244C1287.85 154.779 1296.23 150.771 1301.2 145.116C1306.23 139.388 1307.63 132.132 1306.01 122.552C1304.4 113.013 1299.78 101.031 1292.63 85.6692L1290.82 86.5129C1297.96 101.861 1302.48 113.633 1304.04 122.885C1305.59 132.095 1304.2 138.667 1299.7 143.796C1295.13 148.998 1287.22 152.878 1275.33 156.323C1263.47 159.761 1247.82 162.719 1227.93 166.196L1228.28 168.166ZM1292.63 85.6691C1285.56 70.4668 1284.65 58.5549 1287.14 49.2413C1289.62 39.9245 1295.54 33.0618 1302.4 28.0357C1309.27 23.005 1317.04 19.8462 1323.11 17.9447C1326.14 16.9954 1328.74 16.3628 1330.58 15.968C1331.5 15.7707 1332.23 15.6329 1332.72 15.5448C1332.97 15.5008 1333.16 15.4692 1333.29 15.4487C1333.35 15.4385 1333.4 15.4311 1333.43 15.4263C1333.45 15.4239 1333.46 15.4222 1333.47 15.4211C1333.47 15.4205 1333.47 15.4202 1333.47 15.4199C1333.47 15.4198 1333.48 15.4198 1333.48 15.4197C1333.48 15.4197 1333.48 15.4197 1333.33 14.4302C1333.19 13.4407 1333.19 13.4408 1333.18 13.4409C1333.18 13.441 1333.18 13.4412 1333.18 13.4414C1333.18 13.4418 1333.18 13.4424 1333.17 13.4431C1333.16 13.4446 1333.15 13.4467 1333.13 13.4494C1333.09 13.455 1333.04 13.4632 1332.97 13.4742C1332.83 13.4963 1332.63 13.5297 1332.37 13.5756C1331.86 13.6676 1331.11 13.8099 1330.16 14.0126C1328.27 14.4179 1325.61 15.0654 1322.51 16.0361C1316.32 17.9745 1308.33 21.2152 1301.22 26.4224C1294.11 31.6344 1287.84 38.8483 1285.2 48.7258C1282.57 58.6065 1283.6 71.0065 1290.82 86.5129L1292.63 85.6691ZM1333.33 14.4302C1333.34 13.4302 1333.34 13.4302 1333.34 13.4302C1333.34 13.4302 1333.34 13.4302 1333.33 13.4302C1333.33 13.4302 1333.33 13.4301 1333.32 13.4301C1333.31 13.43 1333.29 13.4299 1333.27 13.4299C1333.22 13.4297 1333.15 13.4297 1333.06 13.4299C1332.88 13.4304 1332.62 13.4323 1332.28 13.4377C1331.59 13.4484 1330.59 13.4732 1329.33 13.5291C1326.8 13.6409 1323.21 13.8774 1318.95 14.3763C1310.45 15.3733 1299.26 17.4222 1288.57 21.6392C1277.89 25.8534 1267.62 32.2672 1261.08 42.0474C1254.52 51.8627 1251.8 64.9403 1256 82.2789L1257.94 81.8082C1253.85 64.9236 1256.54 52.4379 1262.74 43.1589C1268.97 33.8447 1278.82 27.6331 1289.3 23.4997C1299.77 19.3692 1310.78 17.3485 1319.19 16.3627C1323.38 15.8703 1326.93 15.6371 1329.41 15.5271C1330.66 15.4721 1331.64 15.4479 1332.31 15.4374C1332.64 15.4322 1332.9 15.4304 1333.07 15.4299C1333.15 15.4297 1333.22 15.4297 1333.26 15.4299C1333.28 15.4299 1333.3 15.43 1333.31 15.4301C1333.31 15.4301 1333.32 15.4301 1333.32 15.4301C1333.32 15.4302 1333.32 15.4302 1333.32 15.4302C1333.32 15.4302 1333.32 15.4302 1333.33 14.4302ZM1256 82.2789C1260.12 99.2874 1258.79 107.559 1254.19 111.971C1251.87 114.205 1248.59 115.575 1244.39 116.514C1240.19 117.454 1235.19 117.937 1229.49 118.487L1229.69 120.477C1235.35 119.931 1240.48 119.438 1244.83 118.466C1249.18 117.493 1252.87 116.016 1255.58 113.414C1261.05 108.156 1262.06 98.8035 1257.94 81.8082L1256 82.2789ZM1229.49 118.487C1217.99 119.596 1203.84 120.956 1188.62 126.989C1173.38 133.029 1157.12 143.732 1141.31 163.465L1142.87 164.715C1158.47 145.249 1174.45 134.758 1189.36 128.848C1204.28 122.931 1218.18 121.587 1229.69 120.477L1229.49 118.487ZM1141.31 163.465C1127.17 181.12 1124.81 196.524 1128.34 210.562C1131.84 224.489 1141.13 236.961 1149.93 248.808L1151.53 247.615C1142.68 235.692 1133.67 223.545 1130.28 210.075C1126.92 196.716 1129.07 181.944 1142.87 164.715L1141.31 163.465ZM1149.93 248.808C1156.81 258.068 1163.39 266.934 1166.99 275.961C1170.56 284.925 1171.18 293.983 1166.16 303.69L1167.94 304.608C1173.28 294.279 1172.59 284.6 1168.85 275.22C1165.13 265.903 1158.37 256.818 1151.53 247.615L1149.93 248.808ZM1166.16 303.69C1159.8 316.007 1147.13 321.331 1132.72 320.779C1118.3 320.225 1102.29 313.77 1089.61 302.694C1076.95 291.628 1067.68 275.998 1066.63 257.123C1065.57 238.252 1072.73 215.988 1093.21 191.644L1091.68 190.356C1070.96 214.985 1063.54 237.733 1064.63 257.235C1065.72 276.734 1075.3 292.841 1088.3 304.199C1101.28 315.548 1117.72 322.205 1132.64 322.777C1147.57 323.35 1161.12 317.813 1167.94 304.608L1166.16 303.69ZM1093.21 191.644C1134.55 142.503 1138.6 106.181 1132.08 82.0215C1128.82 69.9725 1122.96 61.0294 1117.9 55.0985C1115.38 52.1327 1113.05 49.917 1111.35 48.4392C1110.5 47.7002 1109.81 47.1452 1109.32 46.7728C1109.08 46.5866 1108.89 46.4459 1108.76 46.3507C1108.69 46.3031 1108.64 46.2669 1108.61 46.2419C1108.59 46.2294 1108.58 46.2198 1108.57 46.213C1108.56 46.2096 1108.56 46.2069 1108.55 46.2049C1108.55 46.2039 1108.55 46.2029 1108.55 46.2024C1108.55 46.2017 1108.55 46.201 1107.98 47.0247C1107.42 47.8484 1107.41 47.8482 1107.41 47.8481C1107.42 47.8483 1107.42 47.8484 1107.42 47.8488C1107.42 47.8496 1107.42 47.8511 1107.42 47.8533C1107.43 47.8578 1107.44 47.865 1107.45 47.875C1107.48 47.8951 1107.53 47.9263 1107.58 47.9688C1107.7 48.0537 1107.88 48.1835 1108.1 48.3583C1108.56 48.708 1109.22 49.2376 1110.04 49.9484C1111.67 51.3704 1113.93 53.5159 1116.38 56.3956C1121.29 62.1559 1126.99 70.8415 1130.15 82.543C1136.45 105.885 1132.74 141.55 1091.68 190.356L1093.21 191.644ZM1107.98 47.0247C1107.08 47.4618 1107.08 47.4616 1107.08 47.4618C1107.08 47.4621 1107.08 47.4625 1107.08 47.4632C1107.08 47.4648 1107.09 47.4673 1107.09 47.4708C1107.09 47.4779 1107.1 47.489 1107.1 47.5041C1107.12 47.5343 1107.14 47.5805 1107.17 47.6424C1107.23 47.766 1107.31 47.9521 1107.42 48.1976C1107.64 48.6886 1107.96 49.417 1108.34 50.3587C1109.11 52.2422 1110.15 54.9774 1111.21 58.3702C1113.33 65.1601 1115.55 74.5625 1115.95 85.034C1116.74 105.94 1110.29 131.078 1081.23 148.317L1082.26 150.037C1112.1 132.33 1118.76 106.392 1117.95 84.9582C1117.54 74.2599 1115.28 64.6766 1113.12 57.7732C1112.04 54.3195 1110.98 51.5311 1110.2 49.6029C1109.8 48.6386 1109.48 47.889 1109.25 47.3785C1109.13 47.1232 1109.04 46.9276 1108.98 46.7948C1108.95 46.7284 1108.92 46.6777 1108.91 46.6431C1108.9 46.6257 1108.89 46.6124 1108.89 46.6032C1108.89 46.5986 1108.89 46.595 1108.88 46.5924C1108.88 46.5911 1108.88 46.5899 1108.88 46.5893C1108.88 46.5883 1108.88 46.5877 1107.98 47.0247ZM1081.23 148.317C1052.14 165.58 1022.77 158.277 1009.95 143.19C1003.56 135.67 1001.28 126.246 1005.07 116.846C1008.87 107.399 1018.87 97.7683 1037.52 90.1263L1036.76 88.2757C1017.85 96.0256 1007.29 105.956 1003.21 116.1C999.11 126.292 1001.63 136.49 1008.43 144.484C1021.97 160.426 1052.46 167.719 1082.26 150.037L1081.23 148.317ZM1037.52 90.1264C1056.43 82.3768 1068.07 72.8462 1074.82 62.8357C1081.58 52.8171 1083.39 42.4014 1082.8 32.9947C1082.22 23.6029 1079.25 15.2131 1076.44 9.1862C1075.04 6.16918 1073.67 3.73476 1072.64 2.05153C1072.13 1.20968 1071.71 0.555083 1071.41 0.108771C1071.26 -0.114404 1071.15 -0.285557 1071.06 -0.402058C1071.02 -0.460311 1070.99 -0.504906 1070.97 -0.535514C1070.96 -0.550819 1070.95 -0.562627 1070.95 -0.570899C1070.94 -0.575034 1070.94 -0.578286 1070.94 -0.580648C1070.94 -0.581829 1070.94 -0.582933 1070.94 -0.583524C1070.94 -0.584404 1070.94 -0.585062 1070.12 0C1069.31 0.585062 1069.31 0.58485 1069.31 0.58486C1069.31 0.585159 1069.31 0.585389 1069.31 0.585986C1069.32 0.587179 1069.32 0.589255 1069.32 0.59221C1069.32 0.598118 1069.33 0.607538 1069.34 0.62043C1069.36 0.646213 1069.39 0.685877 1069.42 0.739095C1069.5 0.845534 1069.61 1.00617 1069.75 1.21837C1070.03 1.64281 1070.44 2.27333 1070.93 3.08896C1071.92 4.72067 1073.26 7.0906 1074.63 10.0312C1077.37 15.9195 1080.25 24.058 1080.81 33.1185C1081.37 42.1641 1079.63 52.1247 1073.16 61.7173C1066.68 71.3179 1055.41 80.6333 1036.76 88.2757L1037.52 90.1264ZM1070.12 0C1069.13 0.0920608 1069.13 0.09161 1069.13 0.0913519C1069.13 0.0915228 1069.13 0.0914551 1069.13 0.0917948C1069.13 0.0924731 1069.13 0.0939166 1069.13 0.0961201C1069.13 0.100527 1069.13 0.107974 1069.13 0.11842C1069.13 0.139313 1069.14 0.172198 1069.14 0.216748C1069.15 0.30585 1069.15 0.441591 1069.16 0.621338C1069.18 0.980861 1069.2 1.51625 1069.2 2.20648C1069.2 3.58719 1069.12 5.58581 1068.83 8.03439C1068.24 12.9332 1066.78 19.6203 1063.29 26.762C1056.32 41.0015 1041.19 57.1959 1008.34 64.5454L1008.78 66.4971C1042.18 59.0226 1057.83 42.4564 1065.09 27.6412C1068.7 20.2556 1070.21 13.3419 1070.82 8.27175C1071.12 5.73584 1071.2 3.65792 1071.2 2.20822C1071.2 1.48324 1071.18 0.914959 1071.16 0.524608C1071.15 0.329418 1071.14 0.178673 1071.13 0.0750226C1071.13 0.0231961 1071.13 -0.016861 1071.12 -0.0448173C1071.12 -0.0587956 1071.12 -0.0697492 1071.12 -0.0776368C1071.12 -0.0815806 1071.12 -0.0847579 1071.12 -0.0871636C1071.12 -0.088366 1071.12 -0.0895914 1071.12 -0.0901928C1071.12 -0.0912232 1071.12 -0.0920608 1070.12 0ZM1008.34 64.5454C991.604 68.2908 979.423 75.6021 971.084 85.4577C962.75 95.3079 958.318 107.625 956.942 121.279C954.194 148.551 963.619 181.315 978.763 211.049L980.546 210.141C965.486 180.573 956.239 148.212 958.932 121.479C960.277 108.131 964.595 96.2244 972.611 86.7495C980.623 77.2798 992.393 70.1636 1008.78 66.4971L1008.34 64.5454ZM978.763 211.049C993.679 240.332 984.034 262.97 968.27 271.261C960.354 275.424 950.819 276.035 941.834 272.074C932.85 268.113 924.324 259.537 918.554 245.166L916.698 245.911C922.62 260.661 931.469 269.691 941.027 273.904C950.584 278.117 960.758 277.471 969.201 273.031C986.157 264.114 995.835 240.159 980.546 210.141L978.763 211.049ZM918.554 245.166C895.285 187.21 901.797 111.464 955.949 65.2209L954.651 63.7C899.677 110.644 893.201 187.386 916.698 245.911L918.554 245.166ZM955.3 64.4605C955.032 63.497 955.031 63.4972 955.03 63.4974C955.03 63.4976 955.029 63.4979 955.027 63.4983C955.025 63.499 955.022 63.4999 955.018 63.5011C955.009 63.5034 954.997 63.5068 954.982 63.5111C954.952 63.5198 954.908 63.5326 954.851 63.5496C954.736 63.5836 954.568 63.6345 954.35 63.7036C953.914 63.8417 953.276 64.0527 952.457 64.3467C950.821 64.9349 948.465 65.8557 945.565 67.1925C939.764 69.8658 931.784 74.204 923.03 80.873C905.515 94.2167 884.924 116.879 872.513 154.155L874.41 154.786C886.68 117.937 907.008 95.594 924.242 82.4639C932.863 75.8962 940.714 71.6303 946.402 69.0089C949.246 67.6982 951.548 66.799 953.134 66.2288C953.927 65.9438 954.541 65.741 954.954 65.6103C955.16 65.545 955.316 65.4976 955.42 65.467C955.471 65.4517 955.51 65.4405 955.534 65.4334C955.547 65.4298 955.556 65.4273 955.561 65.4257C955.564 65.4249 955.566 65.4244 955.567 65.4241C955.568 65.424 955.568 65.4239 955.568 65.4238C955.568 65.4239 955.568 65.424 955.3 64.4605ZM872.513 154.155C866.445 172.377 855.119 180.535 843.016 182.019C830.826 183.515 817.63 178.27 807.891 169.224C798.158 160.185 792.014 147.482 793.709 134.196C795.4 120.937 804.937 106.81 827.164 94.9941L826.225 93.2281C803.635 105.237 793.525 119.835 791.725 133.943C789.929 148.023 796.451 161.33 806.53 170.69C816.601 180.044 830.361 185.587 843.259 184.004C856.243 182.412 868.137 173.626 874.41 154.786L872.513 154.155ZM826.695 94.1111C826.557 93.1207 826.556 93.1208 826.555 93.121C826.554 93.1211 826.552 93.1214 826.55 93.1216C826.546 93.1222 826.54 93.123 826.533 93.1241C826.518 93.1262 826.496 93.1294 826.467 93.1336C826.41 93.1419 826.327 93.1544 826.217 93.1713C825.998 93.205 825.677 93.2562 825.262 93.327C824.432 93.4684 823.227 93.6878 821.719 94.0006C818.703 94.6262 814.471 95.6264 809.597 97.1264C799.862 100.123 787.507 105.131 777.17 113.177C766.82 121.234 758.447 132.38 756.834 147.615C755.224 162.826 760.375 181.925 776.652 205.861L778.306 204.737C762.18 181.022 757.281 162.396 758.823 147.825C760.363 133.278 768.344 122.582 778.399 114.755C788.467 106.918 800.566 101.998 810.186 99.038C814.989 97.5597 819.159 96.5743 822.125 95.9589C823.608 95.6513 824.789 95.4363 825.598 95.2986C826.002 95.2297 826.313 95.1801 826.522 95.1479C826.626 95.1318 826.705 95.12 826.757 95.1124C826.784 95.1086 826.803 95.1058 826.815 95.104C826.822 95.1031 826.826 95.1024 826.829 95.102C826.831 95.1018 826.832 95.1017 826.832 95.1016C826.833 95.1015 826.833 95.1015 826.695 94.1111ZM776.652 205.861C791.757 228.075 796.481 247.177 794.981 263.38L796.973 263.565C798.525 246.793 793.605 227.236 778.306 204.737L776.652 205.861ZM794.981 263.38C791.491 301.064 755.226 320.134 718.494 320.134C681.762 320.134 645.497 301.064 642.007 263.38L640.015 263.565C643.646 302.763 681.303 322.134 718.494 322.134C755.685 322.134 793.342 302.763 796.973 263.565L794.981 263.38ZM642.007 263.38C640.507 247.177 645.227 228.078 660.335 205.861L658.682 204.737C643.379 227.239 638.463 246.793 640.015 263.565L642.007 263.38ZM660.335 205.861C676.612 181.925 681.763 162.826 680.153 147.615C678.541 132.38 670.168 121.234 659.818 113.177C649.481 105.131 637.125 100.123 627.391 97.1264C622.517 95.6264 618.285 94.6262 615.269 94.0006C613.761 93.6878 612.556 93.4684 611.726 93.327C611.311 93.2562 610.989 93.205 610.771 93.1713C610.661 93.1544 610.577 93.1419 610.52 93.1336C610.492 93.1294 610.47 93.1262 610.455 93.1241C610.448 93.123 610.442 93.1222 610.438 93.1216C610.436 93.1214 610.434 93.1211 610.433 93.121C610.432 93.1208 610.431 93.1207 610.293 94.1111C610.155 95.1015 610.155 95.1015 610.155 95.1016C610.156 95.1017 610.157 95.1018 610.158 95.102C610.161 95.1024 610.166 95.1031 610.172 95.104C610.185 95.1058 610.204 95.1086 610.23 95.1124C610.282 95.12 610.361 95.1318 610.466 95.1479C610.674 95.1801 610.985 95.2297 611.39 95.2986C612.198 95.4363 613.38 95.6513 614.863 95.9589C617.829 96.5743 621.999 97.5597 626.802 99.038C636.421 101.998 648.521 106.918 658.589 114.755C668.643 122.582 676.625 133.278 678.165 147.825C679.707 162.396 674.808 181.022 658.682 204.737L660.335 205.861ZM609.824 94.9941C632.051 106.81 641.588 120.937 643.279 134.196C644.974 147.482 638.83 160.185 629.097 169.224C619.358 178.27 606.162 183.515 593.972 182.019C581.868 180.535 570.542 172.377 564.475 154.155L562.577 154.786C568.85 173.626 580.745 182.412 593.729 184.004C606.627 185.587 620.387 180.044 630.458 170.69C640.536 161.33 647.059 148.023 645.263 133.943C643.463 119.835 633.352 105.237 610.762 93.2281L609.824 94.9941ZM564.475 154.155C552.064 116.879 531.471 94.2167 513.956 80.873C505.202 74.204 497.22 69.8658 491.42 67.1925C488.519 65.8557 486.163 64.9348 484.527 64.3467C483.708 64.0527 483.07 63.8417 482.634 63.7036C482.416 63.6345 482.248 63.5836 482.133 63.5496C482.076 63.5326 482.032 63.5198 482.002 63.5111C481.986 63.5068 481.975 63.5034 481.966 63.5011C481.962 63.4999 481.959 63.499 481.956 63.4983C481.955 63.4979 481.954 63.4976 481.953 63.4974C481.953 63.4972 481.952 63.497 481.684 64.4605C481.416 65.424 481.416 65.4239 481.416 65.4239C481.416 65.4239 481.416 65.424 481.417 65.4241C481.418 65.4244 481.42 65.4249 481.423 65.4257C481.428 65.4273 481.437 65.4298 481.449 65.4334C481.474 65.4405 481.513 65.4517 481.564 65.467C481.668 65.4976 481.824 65.545 482.03 65.6103C482.443 65.7411 483.057 65.9438 483.85 66.2288C485.436 66.799 487.739 67.6982 490.583 69.0089C496.271 71.6303 504.123 75.8962 512.744 82.464C529.979 95.594 550.308 117.937 562.577 154.786L564.475 154.155ZM481.035 65.2209C535.183 111.464 541.699 187.21 518.43 245.166L520.286 245.911C543.784 187.386 537.303 110.644 482.333 63.7L481.035 65.2209ZM518.43 245.166C512.66 259.537 504.134 268.112 495.15 272.073C486.165 276.033 476.63 275.422 468.714 271.259C452.95 262.968 443.305 240.331 458.22 211.049L456.438 210.141C441.149 240.157 450.827 264.112 467.783 273.029C476.226 277.469 486.4 278.115 495.957 273.903C505.514 269.69 514.364 260.661 520.286 245.911L518.43 245.166ZM458.221 211.049C473.365 181.315 482.791 148.552 480.043 121.279C478.667 107.625 474.235 95.3079 465.901 85.4577C457.563 75.6021 445.381 68.2908 428.641 64.5454L428.204 66.4971C444.592 70.1637 456.362 77.2798 464.374 86.7495C472.391 96.2244 476.708 108.131 478.053 121.479C480.746 148.212 471.498 180.573 456.438 210.141L458.221 211.049ZM428.641 64.5454C395.795 57.1959 380.664 41.0015 373.695 26.762C370.2 19.6203 368.74 12.9332 368.155 8.0344C367.862 5.58581 367.788 3.58719 367.787 2.20648C367.787 1.51625 367.804 0.980862 367.822 0.621339C367.83 0.441592 367.839 0.305851 367.845 0.216749C367.848 0.172199 367.851 0.139314 367.853 0.118422C367.854 0.107976 367.854 0.100528 367.855 0.0961213C367.855 0.0939177 367.855 0.0924743 367.855 0.091796C367.855 0.0914563 367.855 0.091524 367.855 0.0913531C367.855 0.0916112 367.855 0.092062 366.859 0C365.863 -0.092062 365.863 -0.0912244 365.863 -0.090194C365.863 -0.0895926 365.863 -0.0883671 365.863 -0.0871648C365.863 -0.0847591 365.863 -0.0815818 365.862 -0.077638C365.861 -0.0697504 365.861 -0.0587968 365.859 -0.0448185C365.857 -0.0168622 365.854 0.0231949 365.85 0.0750214C365.843 0.178671 365.833 0.329417 365.824 0.524607C365.805 0.914958 365.787 1.48324 365.787 2.20822C365.788 3.65792 365.866 5.73584 366.169 8.27174C366.775 13.3419 368.284 20.2556 371.899 27.6412C379.149 42.4564 394.8 59.0226 428.204 66.4971L428.641 64.5454ZM366.859 0C366.048 -0.585029 366.048 -0.584371 366.047 -0.583491C366.047 -0.5829 366.046 -0.581796 366.045 -0.580615C366.043 -0.578253 366.041 -0.575001 366.038 -0.570865C366.032 -0.562594 366.024 -0.550785 366.013 -0.535481C365.991 -0.504872 365.96 -0.460277 365.919 -0.402024C365.838 -0.285523 365.721 -0.11437 365.572 0.108805C365.275 0.555119 364.851 1.20972 364.34 2.05156C363.319 3.7348 361.949 6.16922 360.542 9.18625C357.733 15.2132 354.764 23.6029 354.182 32.9947C353.599 42.4015 355.411 52.8171 362.169 62.8357C368.921 72.8462 380.554 82.3768 399.467 90.1264L400.225 88.2757C381.574 80.6333 370.303 71.3179 363.827 61.7173C357.356 52.1247 355.617 42.164 356.178 33.1185C356.74 24.058 359.611 15.9195 362.355 10.0311C363.726 7.09056 365.06 4.72063 366.05 3.08892C366.545 2.27329 366.953 1.64277 367.236 1.21833C367.378 1.00613 367.488 0.8455 367.562 0.739061C367.599 0.685844 367.627 0.646179 367.645 0.620396C367.654 0.607505 367.661 0.598085 367.665 0.592176C367.667 0.589222 367.669 0.587146 367.67 0.585953C367.67 0.585356 367.67 0.585126 367.67 0.584827C367.67 0.584817 367.67 0.585029 366.859 0ZM399.467 90.1264C418.116 97.7683 428.124 107.399 431.925 116.846C435.706 126.246 433.427 135.67 427.039 143.19C414.222 158.277 384.846 165.58 355.753 148.317L354.732 150.037C384.532 167.719 415.021 160.426 428.564 144.484C435.356 136.49 437.881 126.292 433.78 116.1C429.699 105.956 419.138 96.0256 400.225 88.2757L399.467 90.1264ZM355.753 148.317C326.701 131.08 320.246 105.942 321.038 85.035C321.435 74.5633 323.654 65.1606 325.778 58.3706C326.839 54.9776 327.874 52.2424 328.643 50.3588C329.027 49.4171 329.345 48.6886 329.565 48.1976C329.676 47.9521 329.762 47.766 329.819 47.6424C329.848 47.5805 329.87 47.5343 329.885 47.5041C329.892 47.489 329.897 47.4779 329.901 47.4708C329.902 47.4673 329.904 47.4647 329.904 47.4632C329.905 47.4625 329.905 47.4621 329.905 47.4617C329.905 47.4616 329.905 47.4618 329.005 47.0247C328.106 46.5877 328.106 46.5884 328.105 46.5893C328.105 46.5899 328.104 46.5911 328.104 46.5924C328.103 46.595 328.101 46.5986 328.099 46.6032C328.094 46.6124 328.088 46.6257 328.079 46.6431C328.063 46.6777 328.039 46.7284 328.008 46.7948C327.946 46.9277 327.855 47.1232 327.741 47.3785C327.512 47.8891 327.185 48.6387 326.791 49.603C326.004 51.5313 324.949 54.3198 323.869 57.7736C321.71 64.6772 319.445 74.2607 319.04 84.9592C318.227 106.393 324.891 132.331 354.732 150.037L355.753 148.317ZM329.005 47.0247C328.438 46.201 328.438 46.2017 328.436 46.2024C328.436 46.2029 328.434 46.2039 328.433 46.2049C328.43 46.2069 328.426 46.2096 328.421 46.213C328.411 46.2198 328.398 46.2294 328.38 46.2419C328.345 46.2669 328.294 46.3031 328.228 46.3507C328.097 46.4459 327.907 46.5866 327.665 46.7728C327.181 47.1452 326.487 47.7002 325.637 48.4392C323.938 49.917 321.612 52.1327 319.085 55.0985C314.031 61.0294 308.164 69.9725 304.909 82.0215C298.384 106.181 302.438 142.503 343.779 191.644L345.31 190.356C304.25 141.55 300.535 105.885 306.84 82.543C310.001 70.8415 315.699 62.1559 320.607 56.3956C323.061 53.5159 325.314 51.3704 326.95 49.9484C327.767 49.2376 328.429 48.708 328.884 48.3583C329.112 48.1835 329.287 48.0537 329.404 47.9688C329.462 47.9263 329.506 47.8951 329.535 47.875C329.549 47.865 329.559 47.8578 329.565 47.8533C329.569 47.8511 329.571 47.8496 329.572 47.8488C329.573 47.8484 329.573 47.8483 329.573 47.8481C329.573 47.8482 329.573 47.8484 329.005 47.0247ZM343.779 191.644C364.26 215.988 371.414 238.252 370.36 257.124C369.306 275.999 360.033 291.629 347.373 302.695C334.701 313.771 318.689 320.227 304.27 320.78C289.862 321.332 277.188 316.007 270.824 303.69L269.047 304.608C275.871 317.814 289.417 323.351 304.346 322.778C319.265 322.206 335.706 315.549 348.689 304.2C361.685 292.842 371.268 276.734 372.357 257.235C373.446 237.733 366.03 214.985 345.31 190.356L343.779 191.644ZM270.824 303.69C265.809 293.983 266.423 284.925 270 275.961C273.602 266.934 280.181 258.068 287.061 248.808L285.455 247.616C278.618 256.818 271.86 265.903 268.142 275.22C264.399 284.6 263.711 294.279 269.047 304.608L270.824 303.69ZM287.061 248.808C295.863 236.961 305.146 224.49 308.648 210.563C312.178 196.524 309.818 181.12 295.674 163.464L294.114 164.715C307.916 181.944 310.068 196.716 306.709 210.075C303.321 223.545 294.314 235.692 285.455 247.616L287.061 248.808ZM295.674 163.465C279.868 143.731 263.605 133.027 248.368 126.987C233.149 120.954 218.996 119.594 207.493 118.484L207.301 120.475C218.81 121.585 232.705 122.929 247.631 128.846C262.54 134.756 278.52 145.248 294.114 164.715L295.674 163.465ZM207.493 118.484C201.795 117.935 196.798 117.451 192.596 116.512C188.396 115.573 185.119 114.203 182.794 111.97C178.199 107.557 176.87 99.2864 180.989 82.2789L179.045 81.8082C174.93 98.8025 175.934 108.155 181.408 113.412C184.117 116.014 187.809 117.491 192.16 118.464C196.508 119.436 201.641 119.929 207.301 120.475L207.493 118.484ZM180.989 82.2789C185.187 64.9396 182.47 51.8617 175.909 42.0463C169.371 32.2659 159.102 25.8522 148.419 21.6382C137.728 17.4214 126.537 15.3727 118.035 14.3759C113.781 13.8771 110.191 13.6407 107.662 13.529C106.397 13.4731 105.397 13.4484 104.712 13.4377C104.369 13.4323 104.105 13.4304 103.926 13.4299C103.836 13.4296 103.767 13.4297 103.721 13.4299C103.698 13.4299 103.68 13.43 103.668 13.4301C103.661 13.4301 103.657 13.4302 103.653 13.4302C103.652 13.4302 103.65 13.4302 103.65 13.4302C103.648 13.4302 103.648 13.4302 103.657 14.4302C103.666 15.4302 103.666 15.4302 103.666 15.4302C103.667 15.4302 103.667 15.4302 103.669 15.4301C103.671 15.4301 103.675 15.4301 103.68 15.4301C103.69 15.43 103.706 15.4299 103.727 15.4299C103.77 15.4297 103.834 15.4296 103.92 15.4299C104.091 15.4304 104.347 15.4322 104.681 15.4374C105.349 15.4479 106.329 15.472 107.574 15.527C110.062 15.637 113.603 15.87 117.802 16.3623C126.208 17.3479 137.214 19.3683 147.685 23.4987C158.163 27.6319 168.02 33.8435 174.246 43.1577C180.449 52.4369 183.133 64.9229 179.045 81.8082L180.989 82.2789ZM103.657 14.4302C103.512 15.4197 103.512 15.4197 103.512 15.4197C103.513 15.4198 103.513 15.4198 103.514 15.4199C103.515 15.4202 103.518 15.4205 103.522 15.4211C103.529 15.4222 103.54 15.4239 103.556 15.4263C103.587 15.4311 103.635 15.4385 103.698 15.4487C103.825 15.4692 104.015 15.5008 104.263 15.5448C104.759 15.6329 105.488 15.7707 106.407 15.968C108.245 16.3628 110.845 16.9954 113.877 17.9447C119.951 19.8462 127.718 23.005 134.584 28.0357C141.443 33.0618 147.363 39.9245 149.849 49.2414C152.334 58.5549 151.427 70.4669 144.354 85.6692L146.167 86.5129C153.382 71.0065 154.418 58.6065 151.782 48.7257C149.146 38.8483 142.879 31.6344 135.766 26.4224C128.659 21.2152 120.667 17.9745 114.475 16.0361C111.374 15.0654 108.714 14.4179 106.826 14.0126C105.882 13.8099 105.131 13.6676 104.613 13.5756C104.354 13.5297 104.153 13.4963 104.016 13.4742C103.948 13.4632 103.895 13.455 103.859 13.4494C103.841 13.4467 103.827 13.4446 103.818 13.4431C103.813 13.4424 103.809 13.4418 103.806 13.4414C103.805 13.4412 103.804 13.441 103.803 13.4409C103.802 13.4408 103.801 13.4407 103.657 14.4302ZM144.354 85.6692C137.206 101.03 132.589 113.012 130.978 122.551C129.36 132.131 130.755 139.387 135.788 145.115C140.756 150.77 149.142 154.778 161.101 158.244C173.086 161.717 188.841 164.692 208.71 168.166L209.054 166.196C189.169 162.719 173.521 159.761 161.658 156.323C149.769 152.878 141.861 148.997 137.29 143.795C132.784 138.666 131.395 132.094 132.95 122.884C134.513 113.632 139.026 101.861 146.167 86.5129L144.354 85.6692ZM208.71 168.166C229.563 171.811 238.719 179.734 240.915 188.423C243.132 197.193 238.433 207.343 230.171 215.796C221.94 224.217 210.417 230.687 199.565 232.136C194.151 232.859 188.944 232.328 184.395 230.215C179.857 228.107 175.903 224.392 173.026 218.621L171.236 219.514C174.298 225.656 178.57 229.714 183.552 232.029C188.522 234.337 194.129 234.88 199.83 234.118C211.209 232.599 223.123 225.868 231.601 217.194C240.047 208.553 245.326 197.712 242.854 187.933C240.361 178.072 230.161 169.885 209.054 166.196L208.71 168.166ZM173.026 218.621C156.44 185.357 121.188 174.492 92.2976 165.546L91.706 167.456C120.756 176.452 155.091 187.134 171.236 219.514L173.026 218.621ZM92.2976 165.546C83.214 162.733 74.7693 160.117 67.643 157.065C60.5087 154.01 54.8141 150.566 51.156 146.162C47.5381 141.807 45.8538 136.443 46.8689 129.366C47.8916 122.236 51.6593 113.354 59.0283 102.073L57.3538 100.979C49.916 112.365 45.9717 121.535 44.8891 129.082C43.7989 136.683 45.616 142.623 49.6176 147.44C53.5791 152.209 59.6223 155.806 66.8558 158.904C74.0973 162.005 82.6503 164.652 91.706 167.456L92.2976 165.546ZM59.0283 102.073C72.4211 81.5698 76.8099 64.8133 75.7224 51.1843C74.6337 37.5404 68.0687 27.1796 59.8566 19.4579C51.6569 11.7478 41.7928 6.64446 34.0086 3.47121C30.1114 1.8825 26.7229 0.772544 24.3059 0.0590499C23.0971 -0.297781 22.1305 -0.555684 21.4638 -0.724886C21.1304 -0.809493 20.872 -0.871939 20.6956 -0.913502C20.6075 -0.934284 20.5398 -0.949846 20.4936 -0.960348C20.4705 -0.9656 20.4527 -0.969586 20.4404 -0.972327C20.4343 -0.973698 20.4295 -0.974757 20.4261 -0.975508C20.4244 -0.975883 20.4229 -0.976216 20.4221 -0.976403C20.4209 -0.976658 20.4201 -0.976837 20.2061 0C19.9921 0.976837 19.992 0.976811 19.9922 0.976861C19.9928 0.976979 19.9933 0.977106 19.9944 0.977343C19.9965 0.977817 20.0001 0.978598 20.0049 0.979687C20.0147 0.981865 20.0299 0.985278 20.0505 0.989946C20.0916 0.999281 20.154 1.01363 20.2368 1.03316C20.4025 1.07221 20.6499 1.13196 20.9718 1.21366C21.6157 1.37707 22.5575 1.62824 23.7397 1.97722C26.1047 2.67535 29.4287 3.76401 33.2536 5.32324C40.9137 8.44588 50.5324 13.4357 58.4866 20.9149C66.4284 28.3825 72.6885 38.307 73.7287 51.3434C74.7701 64.3946 70.5917 80.7131 57.3538 100.979L59.0283 102.073ZM20.2061 0C19.798 0.912948 19.7976 0.912777 19.7974 0.912685C19.7976 0.912762 19.7976 0.912749 19.7979 0.912901C19.7986 0.913205 19.8 0.913828 19.8021 0.914772C19.8062 0.916658 19.8132 0.919826 19.8229 0.92428C19.8423 0.933189 19.8726 0.947244 19.9135 0.966493C19.9951 1.00499 20.1185 1.06425 20.2797 1.14466C20.6022 1.3055 21.0758 1.5508 21.6688 1.88362C22.8553 2.54949 24.5171 3.56419 26.4021 4.95166C30.1764 7.72978 34.8187 11.9829 38.3433 17.8974C41.8607 23.7999 44.277 31.3754 43.5925 40.8459C42.9072 50.3271 39.1089 61.7727 30.0855 75.3918L31.7528 76.4964C40.9157 62.6668 44.8714 50.895 45.5873 40.9901C46.304 31.0744 43.7688 23.0949 40.0614 16.8736C36.3611 10.6643 31.5053 6.22462 27.5877 3.34096C25.6267 1.89753 23.8941 0.839075 22.6477 0.139522C22.0242 -0.210379 21.5217 -0.470858 21.1723 -0.645129C20.9975 -0.732275 20.861 -0.797895 20.7667 -0.842391C20.7195 -0.86464 20.6829 -0.881611 20.6573 -0.893353C20.6445 -0.899224 20.6345 -0.903788 20.6273 -0.907052C20.6237 -0.908684 20.6208 -0.90999 20.6186 -0.910973C20.6175 -0.911464 20.6164 -0.911959 20.6158 -0.912203C20.6149 -0.912616 20.6142 -0.912948 20.2061 0ZM30.0855 75.3918C11.8015 102.988 5.17946 129.524 11.1108 154.032C17.04 178.532 35.459 200.779 66.7701 219.921L67.8133 218.214C36.7698 199.236 18.8162 177.369 13.0547 153.562C7.29523 129.763 13.6642 103.798 31.7528 76.4964L30.0855 75.3918ZM66.7701 219.921C82.1882 229.347 88.999 240.033 90.2096 250.029C91.4219 260.038 87.0508 269.605 79.5855 276.855C64.6044 291.406 37.6695 296.22 19.9693 276.637L18.4856 277.979C37.1579 298.636 65.4324 293.39 80.979 278.29C88.7775 270.716 93.4998 260.561 92.1951 249.788C90.8888 239.003 83.5725 227.849 67.8133 218.214L66.7701 219.921ZM19.9693 276.637C12.3279 268.184 6.02491 259.468 0.863335 250.638L-0.863335 251.647C4.36744 260.596 10.7518 269.423 18.4856 277.979L19.9693 276.637ZM1 382V251.142H-1V382H1ZM718.432 381H0V383H718.432V381ZM718.571 381H718.432V383H718.571V381ZM1440 381H718.571V383H1440V381Z" fill="#88AAFF" mask="url(#path-1-inside-1_137_257)"/>
<defs>
<linearGradient id="paint0_linear_137_257" x1="718.5" y1="0" x2="718.5" y2="382" gradientUnits="userSpaceOnUse">
<stop stop-color="white" stop-opacity="0.5"/>
<stop offset="0.5" stop-color="#FFD261"/>
</linearGradient>
</defs>
</svg>
