<svg width="60" height="60" viewBox="0 0 60 60" fill="none" xmlns="http://www.w3.org/2000/svg">
<path d="M55.2942 46.6406C55.079 46.762 54.8418 46.8396 54.5964 46.869C54.3511 46.8984 54.1023 46.879 53.8644 46.8119C53.6266 46.7448 53.4043 46.6314 53.2105 46.4781C53.0166 46.3248 52.855 46.1347 52.7349 45.9187L36.4036 16.875H31.8755V18.75C31.8755 19.2473 31.6779 19.7242 31.3263 20.0758C30.9747 20.4275 30.4978 20.625 30.0005 20.625C29.5032 20.625 29.0263 20.4275 28.6747 20.0758C28.323 19.7242 28.1255 19.2473 28.1255 18.75V16.875H23.5974L7.26611 45.9187C7.02244 46.3539 6.6159 46.6744 6.13592 46.8097C5.65595 46.9451 5.14185 46.8843 4.70673 46.6406C4.27161 46.397 3.95111 45.9904 3.81573 45.5104C3.68035 45.0305 3.74119 44.5164 3.98486 44.0812L19.2942 16.875H5.62548C5.1282 16.875 4.65129 16.6775 4.29966 16.3258C3.94802 15.9742 3.75048 15.4973 3.75048 15C3.75048 14.5027 3.94802 14.0258 4.29966 13.6742C4.65129 13.3225 5.1282 13.125 5.62548 13.125H54.3755C54.8728 13.125 55.3497 13.3225 55.7013 13.6742C56.0529 14.0258 56.2505 14.5027 56.2505 15C56.2505 15.4973 56.0529 15.9742 55.7013 16.3258C55.3497 16.6775 54.8728 16.875 54.3755 16.875H40.7067L56.0161 44.0812C56.1375 44.2965 56.2151 44.5337 56.2445 44.779C56.2739 45.0244 56.2545 45.2732 56.1874 45.511C56.1203 45.7489 56.0068 45.9711 55.8536 46.165C55.7003 46.3589 55.5102 46.5205 55.2942 46.6406ZM30.0005 26.25C29.5032 26.25 29.0263 26.4475 28.6747 26.7992C28.323 27.1508 28.1255 27.6277 28.1255 28.125V31.875C28.1255 32.3723 28.323 32.8492 28.6747 33.2008C29.0263 33.5525 29.5032 33.75 30.0005 33.75C30.4978 33.75 30.9747 33.5525 31.3263 33.2008C31.6779 32.8492 31.8755 32.3723 31.8755 31.875V28.125C31.8755 27.6277 31.6779 27.1508 31.3263 26.7992C30.9747 26.4475 30.4978 26.25 30.0005 26.25ZM30.0005 39.375C29.5032 39.375 29.0263 39.5725 28.6747 39.9242C28.323 40.2758 28.1255 40.7527 28.1255 41.25V45C28.1255 45.4973 28.323 45.9742 28.6747 46.3258C29.0263 46.6775 29.5032 46.875 30.0005 46.875C30.4978 46.875 30.9747 46.6775 31.3263 46.3258C31.6779 45.9742 31.8755 45.4973 31.8755 45V41.25C31.8755 40.7527 31.6779 40.2758 31.3263 39.9242C30.9747 39.5725 30.4978 39.375 30.0005 39.375Z" fill="black" fill-opacity="0.3"/>
</svg>
