<svg width="401" height="244" viewBox="0 0 401 244" fill="none" xmlns="http://www.w3.org/2000/svg">
<path fill-rule="evenodd" clip-rule="evenodd" d="M0 244V175.293C7.40798 155.601 0.177769 130.668 0.177769 130.668C0.177769 130.668 16.904 149.577 6.44135 183.291C-1.59993 209.204 15.3669 228.438 22.893 208.011C27.4129 189.246 28.5006 162.852 18.2282 128.141C-5.44938 48.1324 23.5747 25.9964 23.5747 25.9964C23.5747 25.9964 8.93569 55.0821 17.6371 87.5055C24.4065 112.734 44.3611 97.6106 30.3627 61.8981C21.4659 39.2012 28.147 5.27221 45.2978 0C45.2978 0 23.5737 25.9981 39.3807 54.3354C54.7888 81.9624 58.0028 111.012 48.9077 141.138C39.8125 171.264 39.2923 201.638 52.5453 210.928C65.7984 220.221 75.4128 190.47 61.3804 143.022C47.3469 95.5736 81.8306 71.0967 81.8306 71.0967C81.8306 71.0967 55.2083 99.559 69.6951 130.437C79.3105 150.932 95.682 115.534 89.185 79.3819C89.185 79.3819 107.244 119.182 87.7024 154.502C68.1611 189.822 85.3705 207.846 96.2876 194.824C103.223 186.551 102.024 175.294 100.629 162.183C99.4476 151.083 98.1248 138.656 101.475 125.585C104.866 112.352 111.951 109.912 119.273 107.39C127.726 104.479 136.495 101.458 140.26 81.5977C140.26 81.5977 141.103 110.748 120.867 128.145C100.631 145.542 115.625 186.458 134.638 167.62C158.996 143.485 161.818 107.624 140.259 59.196C126.054 27.2866 146.723 2.17591 146.723 2.17591C146.723 2.17591 132.108 33.1284 146.723 51.0498C161.339 68.9711 173.463 88.992 173.648 120.832C173.766 141.068 166.807 153.805 160.391 165.547C154.317 176.664 148.73 186.89 150.097 201.745C152.908 232.292 196.559 213.822 183.178 138.359C169.795 62.8984 195.499 49.829 195.499 49.829C195.499 49.829 174.742 75.966 187.832 110.536C187.894 110.7 187.955 110.863 188.017 111.026L188.045 111.102C193.211 124.885 206.836 127.151 211.953 111.102C211.994 110.974 212.042 110.853 212.091 110.732C212.116 110.667 212.142 110.602 212.167 110.536C225.258 75.966 204.5 49.829 204.5 49.829C204.5 49.829 230.203 62.8984 216.822 138.359C203.44 213.822 247.092 232.292 249.903 201.745C251.269 186.89 245.682 176.664 239.608 165.547C233.192 153.805 226.233 141.068 226.351 120.832C226.536 88.992 238.66 68.9711 253.275 51.0498C267.889 33.1284 253.275 2.17591 253.275 2.17591C253.275 2.17591 273.943 27.2884 259.739 59.196C238.181 107.624 241.002 143.485 265.36 167.62C284.374 186.458 299.368 145.542 279.133 128.145C258.896 110.748 259.739 81.5977 259.739 81.5977C263.504 101.458 272.273 104.479 280.726 107.39C288.048 109.912 295.133 112.352 298.525 125.585C301.875 138.655 300.552 151.083 299.37 162.182C297.975 175.293 296.776 186.55 303.711 194.824C314.628 207.846 331.837 189.822 312.296 154.502C292.755 119.182 310.813 79.3819 310.813 79.3819C304.316 115.532 320.688 150.93 330.303 130.437C344.79 99.559 318.169 71.0967 318.169 71.0967C318.169 71.0967 352.651 95.5736 338.619 143.022C324.587 190.47 334.201 220.219 347.454 210.928C360.707 201.636 360.187 171.264 351.092 141.138C341.997 111.012 345.211 81.9624 360.619 54.3354C376.423 25.9981 354.699 0 354.699 0C371.849 5.27221 378.53 39.2012 369.634 61.8981C355.635 97.6106 375.589 112.734 382.359 87.5055C391.061 55.0821 376.422 25.9964 376.422 25.9964C376.422 25.9964 405.446 48.1324 381.768 128.141C376.13 147.196 373.918 163.741 373.813 177.897L373.818 177.89C373.817 177.94 373.816 177.988 373.816 178.036C373.815 178.082 373.814 178.129 373.813 178.177C373.75 189.669 375.077 199.58 377.093 207.966C384.61 228.468 401.609 209.225 393.561 183.293C383.099 149.579 399.825 130.67 399.825 130.67C399.825 130.67 391.983 157.713 401 177.713V244H394.753H384.201H221.318H178.679H15.8007H5.24354H0Z" fill="url(#paint0_linear_137_258)"/>
<defs>
<linearGradient id="paint0_linear_137_258" x1="200.001" y1="0" x2="200.001" y2="245.742" gradientUnits="userSpaceOnUse">
<stop stop-color="white"/>
<stop offset="0.5" stop-color="#E03F53"/>
</linearGradient>
</defs>
</svg>
