<svg width="1440" height="370" viewBox="0 0 1440 370" fill="none" xmlns="http://www.w3.org/2000/svg">
<path d="M1273.73 0C1335.32 7.99497 1359.31 59.4449 1327.36 93.8623C1277.09 148.016 1348.75 170.95 1373.06 132.693C1404.27 83.581 1351.86 39.5182 1351.74 39.4209C1351.93 39.481 1455.89 73.0964 1370.94 194.312C1350.69 223.208 1342.75 248.296 1342.37 269.763L1342.39 269.752C1342.38 269.899 1342.38 270.039 1342.37 270.187C1342.15 287.614 1346.91 302.642 1354.15 315.358C1381.14 346.447 1442.19 317.268 1413.29 277.944C1375.72 226.821 1435.78 198.146 1435.78 198.146C1435.78 198.146 1407.62 239.153 1440 269.48V370H0V265.812C26.5729 235.984 0.694564 198.226 0.638672 198.145C0.65986 198.155 60.6961 226.827 23.1318 277.941C-5.7446 317.236 55.1833 346.403 82.21 315.427C98.4406 286.971 102.346 246.947 65.458 194.312C-19.5684 72.9878 84.6582 39.4209 84.6582 39.4209C84.6582 39.4209 32.0891 83.5266 63.3359 132.693C87.6454 170.95 159.302 148.016 109.033 93.8623C77.0849 59.4448 101.077 7.99476 162.666 0C162.666 0 84.6545 39.4232 141.417 82.3936C196.748 124.287 208.29 168.338 175.629 214.021C142.968 259.703 141.1 305.762 188.691 319.851C236.283 333.941 270.809 288.828 220.419 216.878C170.067 144.988 293.649 107.873 293.855 107.811C293.694 107.884 198.299 151.011 250.277 197.794C284.806 228.872 343.596 175.194 320.266 120.374C320.266 120.374 385.115 180.727 314.941 234.286C244.768 287.845 306.568 315.177 345.771 295.43C391.757 272.267 338.158 233.67 364.398 190.437C390.639 147.205 478.445 179.937 503.678 123.734C503.678 123.734 506.705 167.938 434.036 194.318C361.367 220.699 415.214 282.745 483.489 254.179C570.96 217.581 581.091 163.2 503.674 89.7646C452.72 41.4313 526.722 3.38435 526.887 3.2998C526.755 3.41733 474.468 50.2703 526.887 77.4121C579.371 104.588 622.909 134.948 623.573 183.229C624.396 242.969 528.907 259.606 539.001 305.926C549.095 352.246 705.85 324.238 657.797 209.808C609.792 95.5034 701.843 75.6036 702.043 75.5605C701.879 75.6481 627.554 115.253 674.511 167.616C674.766 167.903 675.021 168.188 675.275 168.475C693.825 189.375 742.753 192.812 761.129 168.475C761.354 168.177 761.643 167.903 761.897 167.616C808.906 115.195 734.364 75.5605 734.364 75.5605C734.364 75.5605 826.665 95.3793 778.611 209.808C730.558 324.238 887.313 352.246 897.407 305.926C907.497 259.606 812.007 242.969 812.83 183.229C813.495 134.948 857.033 104.588 909.518 77.4121C961.919 50.2772 909.675 3.44088 909.518 3.2998C909.724 3.40561 983.666 41.4474 932.729 89.7646C855.312 163.2 865.444 217.581 952.915 254.179C1021.19 282.745 1075.04 220.699 1002.37 194.318C929.702 167.938 932.729 123.734 932.729 123.734C957.962 179.937 1045.77 147.205 1072.01 190.437C1098.25 233.668 1044.65 272.264 1090.63 295.43C1129.84 315.177 1191.64 287.845 1121.46 234.286C1051.29 180.727 1116.14 120.374 1116.14 120.374C1092.81 175.192 1151.6 228.87 1186.13 197.794C1238.15 150.971 1142.55 107.811 1142.55 107.811C1142.55 107.811 1266.38 144.928 1215.99 216.878C1165.6 288.828 1200.12 333.939 1247.72 319.851C1295.31 305.76 1293.44 259.703 1260.78 214.021C1228.12 168.338 1239.66 124.287 1294.99 82.3936C1351.67 39.4782 1273.93 0.100968 1273.73 0Z" fill="url(#paint0_linear_137_258)"/>
<defs>
<linearGradient id="paint0_linear_137_258" x1="718.209" y1="0" x2="718.209" y2="372.643" gradientUnits="userSpaceOnUse">
<stop stop-color="white"/>
<stop offset="0.5" stop-color="#E03F53"/>
</linearGradient>
</defs>
</svg>
