<svg width="226" height="226" viewBox="0 0 226 226" fill="none" xmlns="http://www.w3.org/2000/svg">
<path d="M177.699 131.252L142.942 113.873C141.574 113.191 140.05 112.883 138.524 112.978C136.999 113.073 135.525 113.569 134.253 114.416L118.297 125.061C110.972 121.034 104.945 115.007 100.918 107.682L111.563 91.7264C112.409 90.4538 112.906 88.9803 113.001 87.4547C113.096 85.929 112.787 84.4052 112.106 83.0371L94.7271 48.2799C94.0068 46.8252 92.8934 45.6014 91.5131 44.7471C90.1328 43.8928 88.5409 43.4423 86.9176 43.4465C75.3949 43.4465 64.3441 48.0239 56.1963 56.1717C48.0485 64.3195 43.4711 75.3702 43.4711 86.893C43.4999 112.234 53.5793 136.529 71.4983 154.448C89.4172 172.367 113.712 182.446 139.053 182.475C144.759 182.475 150.408 181.351 155.68 179.168C160.951 176.985 165.74 173.784 169.775 169.75C173.809 165.716 177.009 160.926 179.193 155.655C181.376 150.384 182.5 144.734 182.5 139.029C182.501 137.414 182.052 135.832 181.204 134.458C180.357 133.084 179.143 131.974 177.699 131.252ZM139.053 165.097C118.32 165.074 98.4415 156.827 83.7804 142.166C69.1194 127.505 60.8727 107.627 60.8497 86.893C60.848 80.8661 62.9348 75.0248 66.7548 70.3631C70.5748 65.7015 75.8921 62.5075 81.8018 61.3247L94.2709 86.3064L83.6591 102.099C82.8661 103.289 82.3789 104.656 82.2406 106.078C82.1023 107.501 82.3172 108.936 82.8662 110.256C89.0832 125.032 100.838 136.787 115.614 143.004C116.938 143.578 118.384 143.812 119.821 143.687C121.259 143.562 122.642 143.081 123.847 142.287L139.716 131.708L164.698 144.177C163.506 150.094 160.298 155.413 155.621 159.228C150.944 163.043 145.089 165.117 139.053 165.097ZM112.985 2.69016e-06C93.4831 -0.00425299 74.3118 5.04075 57.3376 14.644C40.3635 24.2472 26.1647 38.0814 16.1234 54.8001C6.08215 71.5189 0.540383 90.5525 0.0375589 110.048C-0.465265 129.544 4.08798 148.838 13.2541 166.052L0.926171 203.036C-0.0949884 206.098 -0.243183 209.384 0.498199 212.526C1.23958 215.667 2.84124 218.54 5.12366 220.823C7.40608 223.105 10.2791 224.707 13.4206 225.448C16.5621 226.19 19.848 226.041 22.9101 225.02L59.8939 212.692C75.0433 220.75 91.8294 225.25 108.978 225.852C126.126 226.454 143.187 223.141 158.864 216.165C174.54 209.189 188.422 198.733 199.455 185.591C210.488 172.449 218.381 156.967 222.537 140.318C226.693 123.67 227.001 106.294 223.439 89.5088C219.876 72.7237 212.537 56.9707 201.977 43.4456C191.418 29.9205 177.916 18.9787 162.496 11.4509C147.076 3.92309 130.145 0.00704083 112.985 2.69016e-06ZM112.985 208.543C96.1823 208.555 79.674 204.13 65.1292 195.716C64.0643 195.098 62.8803 194.714 61.6557 194.588C60.431 194.463 59.1937 194.599 58.0257 194.988L17.4032 208.543L30.9477 167.921C31.3381 166.753 31.4761 165.516 31.3525 164.292C31.2289 163.067 30.8466 161.883 30.2308 160.817C19.6947 142.601 15.4645 121.418 18.1965 100.552C20.9284 79.6867 30.4697 60.3061 45.3403 45.4167C60.2109 30.5273 79.5794 20.9615 100.441 18.2032C121.303 15.445 142.492 19.6484 160.722 30.1615C178.951 40.6745 193.201 56.9096 201.262 76.348C209.322 95.7864 210.743 117.342 205.303 137.67C199.863 157.998 187.867 175.963 171.175 188.777C154.483 201.592 134.029 208.54 112.985 208.543Z" fill="url(#paint0_linear_244_121)"/>
<path d="M177.699 131.252L142.942 113.873C141.574 113.191 140.05 112.883 138.524 112.978C136.999 113.073 135.525 113.569 134.253 114.416L118.297 125.061C110.972 121.034 104.945 115.007 100.918 107.682L111.563 91.7264C112.409 90.4538 112.906 88.9803 113.001 87.4547C113.096 85.929 112.787 84.4052 112.106 83.0371L94.7271 48.2799C94.0068 46.8252 92.8934 45.6014 91.5131 44.7471C90.1328 43.8928 88.5409 43.4423 86.9176 43.4465C75.3949 43.4465 64.3441 48.0239 56.1963 56.1717C48.0485 64.3195 43.4711 75.3702 43.4711 86.893C43.4999 112.234 53.5793 136.529 71.4983 154.448C89.4172 172.367 113.712 182.446 139.053 182.475C144.759 182.475 150.408 181.351 155.68 179.168C160.951 176.985 165.74 173.784 169.775 169.75C173.809 165.716 177.009 160.926 179.193 155.655C181.376 150.384 182.5 144.734 182.5 139.029C182.501 137.414 182.052 135.832 181.204 134.458C180.357 133.084 179.143 131.974 177.699 131.252ZM139.053 165.097C118.32 165.074 98.4415 156.827 83.7804 142.166C69.1194 127.505 60.8727 107.627 60.8497 86.893C60.848 80.8661 62.9348 75.0248 66.7548 70.3631C70.5748 65.7015 75.8921 62.5075 81.8018 61.3247L94.2709 86.3064L83.6591 102.099C82.8661 103.289 82.3789 104.656 82.2406 106.078C82.1023 107.501 82.3172 108.936 82.8662 110.256C89.0832 125.032 100.838 136.787 115.614 143.004C116.938 143.578 118.384 143.812 119.821 143.687C121.259 143.562 122.642 143.081 123.847 142.287L139.716 131.708L164.698 144.177C163.506 150.094 160.298 155.413 155.621 159.228C150.944 163.043 145.089 165.117 139.053 165.097ZM112.985 2.69016e-06C93.4831 -0.00425299 74.3118 5.04075 57.3376 14.644C40.3635 24.2472 26.1647 38.0814 16.1234 54.8001C6.08215 71.5189 0.540383 90.5525 0.0375589 110.048C-0.465265 129.544 4.08798 148.838 13.2541 166.052L0.926171 203.036C-0.0949884 206.098 -0.243183 209.384 0.498199 212.526C1.23958 215.667 2.84124 218.54 5.12366 220.823C7.40608 223.105 10.2791 224.707 13.4206 225.448C16.5621 226.19 19.848 226.041 22.9101 225.02L59.8939 212.692C75.0433 220.75 91.8294 225.25 108.978 225.852C126.126 226.454 143.187 223.141 158.864 216.165C174.54 209.189 188.422 198.733 199.455 185.591C210.488 172.449 218.381 156.967 222.537 140.318C226.693 123.67 227.001 106.294 223.439 89.5088C219.876 72.7237 212.537 56.9707 201.977 43.4456C191.418 29.9205 177.916 18.9787 162.496 11.4509C147.076 3.92309 130.145 0.00704083 112.985 2.69016e-06ZM112.985 208.543C96.1823 208.555 79.674 204.13 65.1292 195.716C64.0643 195.098 62.8803 194.714 61.6557 194.588C60.431 194.463 59.1937 194.599 58.0257 194.988L17.4032 208.543L30.9477 167.921C31.3381 166.753 31.4761 165.516 31.3525 164.292C31.2289 163.067 30.8466 161.883 30.2308 160.817C19.6947 142.601 15.4645 121.418 18.1965 100.552C20.9284 79.6867 30.4697 60.3061 45.3403 45.4167C60.2109 30.5273 79.5794 20.9615 100.441 18.2032C121.303 15.445 142.492 19.6484 160.722 30.1615C178.951 40.6745 193.201 56.9096 201.262 76.348C209.322 95.7864 210.743 117.342 205.303 137.67C199.863 157.998 187.867 175.963 171.175 188.777C154.483 201.592 134.029 208.54 112.985 208.543Z" fill="white" fill-opacity="0.25"/>
<defs>
<linearGradient id="paint0_linear_244_121" x1="112.95" y1="0" x2="112.95" y2="225.922" gradientUnits="userSpaceOnUse">
<stop offset="1" stop-color="#77B255"/>
<stop offset="1" stop-color="#334C24"/>
</linearGradient>
</defs>
</svg>
